<?xml version="1.0" encoding="UTF-8" standalone="no"?>
<!-- Created with Inkscape (http://www.inkscape.org/) -->

<svg
   xmlns:dc="http://purl.org/dc/elements/1.1/"
   xmlns:cc="http://creativecommons.org/ns#"
   xmlns:rdf="http://www.w3.org/1999/02/22-rdf-syntax-ns#"
   xmlns:svg="http://www.w3.org/2000/svg"
   xmlns="http://www.w3.org/2000/svg"
   xmlns:sodipodi="http://sodipodi.sourceforge.net/DTD/sodipodi-0.dtd"
   xmlns:inkscape="http://www.inkscape.org/namespaces/inkscape"
   id="svg4136"
   version="1.1"
   inkscape:version="0.91 r13725"
   width="1152.5"
   height="687.5"
   viewBox="0 0 1152.5 687.5"
   sodipodi:docname="Book6.svg">
  <metadata
     id="metadata4142">
    <rdf:RDF>
      <cc:Work
         rdf:about="">
        <dc:format>image/svg+xml</dc:format>
        <dc:type
           rdf:resource="http://purl.org/dc/dcmitype/StillImage" />
        <dc:title></dc:title>
      </cc:Work>
    </rdf:RDF>
  </metadata>
  <defs
     id="defs4140" />
  <sodipodi:namedview
     pagecolor="#ffffff"
     bordercolor="#666666"
     borderopacity="1"
     objecttolerance="10"
     gridtolerance="10"
     guidetolerance="10"
     inkscape:pageopacity="0"
     inkscape:pageshadow="2"
     inkscape:window-width="1366"
     inkscape:window-height="705"
     id="namedview4138"
     showgrid="false"
     inkscape:zoom="0.69848156"
     inkscape:cx="576.25"
     inkscape:cy="343.75"
     inkscape:window-x="-8"
     inkscape:window-y="-8"
     inkscape:window-maximized="1"
     inkscape:current-layer="svg4136" />
  <path
     style="fill:#000000"
     d="m 306.6496,673.58921 c -3.56146,-0.43721 -8.06146,-1.89461 -10,-3.23866 -1.93852,-1.34405 -4.4902,-2.79166 -5.67038,-3.2169 C 288.8079,666.35127 278.75,647.78217 278.75,644.5558 c 0,-0.96233 -0.81369,-2.42499 -1.80821,-3.25036 -0.99452,-0.82538 -18.79407,-34.78488 -39.55457,-75.46557 C 216.62672,525.1592 193.12565,479.21875 185.16261,463.75 177.19957,448.28125 165.046,424.55586 158.15467,411.02691 151.26335,397.49797 135.4291,366.84172 122.96745,342.90191 80.470431,261.26182 9.5824036,124.39809 4.6803915,114.52472 -0.92361018,103.23744 -0.95308739,103.3245 10,98.81462 c 3.78125,-1.55691 8.03854,-3.898016 9.460645,-5.202456 1.422105,-1.30444 3.953355,-2.351749 5.625,-2.327353 1.671645,0.0244 4.793072,-0.307627 6.936505,-0.737832 2.496491,-0.501068 5.28204,-0.06604 7.750425,1.210415 4.633694,2.396176 7.932254,2.537472 10.0408,0.430106 1.67995,-1.679009 17.683902,-2.24458 17.685626,-0.625 0.0012,1.122314 7.723679,1.253258 10.524565,0.178456 1.08792,-0.417473 3.026268,-3.089348 4.30744,-5.9375 1.281173,-2.848151 3.812063,-6.542132 5.6242,-8.208848 C 89.990791,75.722374 91.25,73.242504 91.25,71.105879 c 0,-1.902085 0.519224,-3.779234 1.153829,-4.171443 0.634606,-0.392207 1.518947,-2.375472 1.965201,-4.407255 0.446255,-2.031783 2.108157,-5.605071 3.693117,-7.94064 1.58496,-2.335568 3.534293,-6.223733 4.331853,-8.640366 1.8804,-5.697656 5.50351,-8.960685 8.94905,-8.059656 3.26686,0.854302 8.55842,-1.023946 10.54718,-3.743738 1.5908,-2.175553 3.88911,-1.934171 12.67381,1.331088 3.08258,1.145787 11.70891,2.240467 21.25,2.69662 8.83354,0.422324 16.90471,1.108811 17.93596,1.525527 1.03125,0.416717 12.28125,0.950609 25,1.186429 12.71875,0.235819 24.25,0.474255 25.625,0.529858 5.16665,0.208928 25.36529,-1.245694 35,-2.520554 5.5,-0.727758 13.09375,-1.664274 16.875,-2.081148 3.78125,-0.416875 8,-1.245543 9.375,-1.841487 1.375,-0.595944 5.3125,-1.393111 8.75,-1.771484 3.4375,-0.378371 9.48437,-1.049502 13.4375,-1.4914 3.95312,-0.441899 7.1875,-1.20434 7.1875,-1.694315 0,-1.454661 16.04869,-5.356137 18.93144,-4.60228 1.46037,0.381894 6.93885,-0.106187 12.17438,-1.08462 26.8018,-5.008803 35.47353,-6.292569 50.14418,-7.423358 5.15625,-0.397436 12.35479,-1.754232 15.99674,-3.015103 7.09598,-2.456683 48.05365,-2.63946 52.58861,-0.234681 1.12181,0.594865 6.39902,1.781221 11.72715,2.636348 5.32812,0.855126 9.6875,2.050819 9.6875,2.657093 0,0.606273 1.3962,0.751892 3.10268,0.323595 2.27389,-0.570713 4.13592,0.09071 6.9709,2.476185 3.65821,3.078177 5.89157,3.843656 9.70666,3.326917 0.91037,-0.123312 2.50696,0.482678 3.54796,1.346631 9.71438,8.062217 36.6718,8.516359 36.6718,0.617798 0,-2.112923 12.27481,-9.823155 13.97035,-8.775256 0.69741,0.431027 2.48003,0.18461 3.96134,-0.547597 5.08239,-2.512186 18.94645,-8.673277 25.19331,-11.1957246 19.97186,-8.0645261 102.2876,-7.847829 144.49972,0.380397 C 739.09958,7.9167167 745.18344,8.75 747.3944,8.75 c 2.21097,0 5.06045,0.5568585 6.33218,1.2374635 1.53966,0.8240005 5.70643,0.7806725 12.47087,-0.1296775 7.35448,-0.9897586 11.09288,-0.989593 13.5431,5.999e-4 2.7257,1.1015251 28.59379,2.9829821 34.94695,2.5417881 25.14811,-1.746406 36.07512,0.772785 49.41205,11.391795 3.42486,2.726917 6.7085,4.958031 7.29696,4.958031 2.16614,0 5.8389,10.291246 11.15257,31.25 2.00447,7.90625 4.72673,16.90625 6.04948,20 1.32274,3.09375 3.90924,9.165145 5.74777,13.49199 1.83852,4.326844 3.63206,10.4977 3.98562,13.713 0.45041,4.09591 1.7569,7.11484 4.36419,10.08438 4.1952,4.77806 6.46584,9.83407 5.52156,12.2948 -0.83256,2.16964 3.13502,11.32189 6.95792,16.05022 1.66338,2.05733 4.35098,7.11561 5.97244,11.24061 1.62147,4.125 4.49843,10.3125 6.39324,13.75 1.89482,3.4375 8.01185,16.22219 13.59339,28.41041 9.67371,21.12421 15.94757,33.1105 19.47885,37.21459 0.88732,1.03125 3.39835,6.36699 5.58006,11.8572 4.24769,10.68913 6.13405,14.20224 14.44005,26.8928 8.55045,13.06405 19.2173,31.6928 20.80515,36.33436 1.8105,5.29279 11.9874,24.8213 14.3383,27.51406 0.9476,1.08539 1.7229,2.43637 1.7229,3.00218 0,0.5658 2.4315,5.30276 5.4033,10.52658 2.9719,5.22379 6.7014,12.59157 8.2879,16.37282 1.5865,3.78125 4.4377,9.13767 6.3361,11.90316 1.8983,2.76549 4.2692,6.98424 5.2685,9.375 0.9993,2.39076 2.7478,5.11884 3.8856,6.06239 1.1377,0.94356 2.0686,2.48568 2.0686,3.42691 0,0.94125 1.146,2.41925 2.5468,3.28445 1.4007,0.8652 4.1601,4.38559 6.132,7.82309 1.9719,3.4375 6.8727,10.10283 10.8907,14.81183 6.6548,7.7992 18.0895,23.10272 25.9788,34.7683 1.7036,2.51907 4.2195,5.366 5.5908,6.32651 3.4024,2.3831 5.4496,7.91571 3.4807,9.40629 -3.3951,2.57016 -13.3071,7.81502 -14.8424,7.85366 -7.3534,0.18506 -8.5921,7.07117 -2.1287,11.83341 2.7993,2.0625 5.8942,5.29688 6.8776,7.1875 0.9833,1.89063 2.4087,3.4375 3.1674,3.4375 0.7588,0 3.8153,2.39063 6.7922,5.3125 2.977,2.92188 7.1231,6.8235 9.2134,8.67029 4.2911,3.79106 4.6022,5.03714 1.9257,7.71364 -1.0312,1.03125 -1.875,2.73702 -1.875,3.7906 0,1.05357 -1.1538,2.9905 -2.564,4.30428 -1.8944,1.76495 -2.3486,3.2465 -1.7395,5.6737 0.9416,3.75147 -3.8645,5.00604 -5.2588,1.37274 -0.4096,-1.06759 -1.6346,-1.6344 -2.7732,-1.28322 -1.1217,0.34596 -14.977,0.15427 -30.7895,-0.42598 -27.704,-1.01661 -34.8459,-0.42145 -27.672,2.30605 6.8771,2.61468 20.7601,4.11854 40.8701,4.42723 11.3839,0.17473 21.9702,0.7215 23.5252,1.21501 2.2303,0.7079 2.9713,0.34591 3.5102,-1.71476 0.9799,-3.74715 4.1415,-3.29287 4.1415,0.5951 0,4.52697 -2.1309,7.96436 -5.8026,9.36035 -4.86,1.84777 -3.5493,3.49897 12.6776,15.97171 0.6875,0.52844 3.2188,2.05145 5.625,3.38446 2.4063,1.333 5.3043,3.1703 6.4401,4.08289 1.1357,0.91259 2.8785,1.48131 3.8728,1.26382 5.6454,-1.23476 10.7127,15.954 6.0715,20.59517 -2.3016,2.30163 -1.5775,3.38442 2.2634,3.38442 5.6466,0 7.6022,1.22414 7.6022,4.75874 0,2.3437 -0.3781,2.86311 -1.3656,1.87571 -0.7732,-0.77324 -3.4819,-1.08169 -6.2448,-0.71111 -2.6836,0.35995 -7.3475,-0.0366 -10.3641,-0.8812 -3.9467,-1.10499 -6.181,-1.1631 -7.9671,-0.20719 -8.5774,4.59046 -139.64986,-0.24835 -184.0584,-6.7949 -6.53125,-0.96281 -18.90625,-2.03338 -27.5,-2.37903 -8.59375,-0.34564 -20.125,-1.20254 -25.625,-1.90423 -13.5599,-1.72996 -47.3997,-4.09618 -61.56764,-4.30507 l -11.56763,-0.17055 -3.74487,4.2299 c -4.80055,5.42231 -4.71816,6.09532 0.94264,7.70113 10.17549,2.8865 26.83317,3.09661 31.2764,0.39453 3.96157,-2.40918 4.28267,-2.41809 11.24456,-0.31238 3.9416,1.19219 13.07279,2.83609 20.29154,3.65313 17.29462,1.95745 17.42725,1.97456 22.5,2.90385 2.40625,0.44081 8.4923,1.1334 13.52455,1.53911 5.03226,0.4057 10.6353,1.30251 12.45121,1.99292 1.81591,0.6904 4.57169,0.93653 6.12397,0.54693 1.55227,-0.38959 5.23766,-0.16706 8.18976,0.49452 9.74924,2.18485 64.71051,2.8204 64.71051,0.74829 0,-2.85745 2.3912,-3.5319 5.4399,-1.53431 2.014,1.31959 3.4658,1.49846 5.0349,0.62034 1.5793,-0.8838 2.8002,-0.71735 4.3026,0.5866 2.9321,2.54481 76.0585,2.8758 78.9683,0.35742 2.1416,-1.85345 18.123,-3.74084 20.2973,-2.3971 0.7891,0.48773 5.4978,0.95951 10.4638,1.04842 5.4578,0.0978 9.8223,0.82001 11.0346,1.82612 1.6866,1.39975 2.3653,1.33884 4.268,-0.38308 1.2443,-1.12612 2.8744,-2.04751 3.6224,-2.04751 0.7479,0 1.611,-0.70313 1.9179,-1.5625 1.0188,-2.85265 2.2862,-0.0391 1.4619,3.24521 -1.1143,4.43976 -3.4654,4.93161 -24.9366,5.21671 -10.3125,0.13694 -24.9375,0.96608 -32.5,1.84253 -25.9949,3.01269 -131.82689,0.78229 -171.875,-3.62225 -12.71875,-1.39881 -33.36861,-3.68819 -45.88857,-5.08748 -38.4199,-4.29397 -69.87412,-5.31211 -100.98643,-3.26878 -18.73452,1.2304 -24.60962,0.34781 -40.52995,-6.08867 l -10.52994,-4.25717 -40.21513,9.83852 c -40.02099,9.79103 -95.95275,18.81614 -135.59998,21.88033 -19.62769,1.51696 -39.19489,4.42654 -67.74454,10.0734 -15.60323,3.08617 -39.50948,7.24982 -53.125,9.25255 -13.6155,2.00272 -28.41171,4.47478 -32.88046,5.49346 -4.46875,1.01868 -10.89844,2.20617 -14.28819,2.63885 -3.38975,0.43269 -6.64385,1.08378 -7.23132,1.44687 -0.58749,0.36307 -4.54861,0.6435 -8.80253,0.62315 -4.2539,-0.0204 -8.04507,0.46575 -8.42483,1.08021 -0.37975,0.61446 -4.33269,1.73646 -8.7843,2.49332 -4.4516,0.75688 -13.71883,2.33683 -20.59383,3.511 -7.76046,1.32541 -14.95524,1.83348 -18.9754,1.33995 z m 8.24606,-8.49827 c 1.05141,-0.66552 3.01673,-0.64703 4.83828,0.0455 4.13614,1.57256 10.9229,-0.96535 12.63602,-4.72524 1.62614,-3.569 5.12948,-3.8084 6.01785,-0.41123 0.99721,3.81333 19.33565,1.65753 27.23719,-3.20191 1.375,-0.84562 5.875,-1.88081 10,-2.30041 11.96922,-1.21754 22.10993,-3.19846 27.5,-5.37196 3.21515,-1.29648 9.68522,-2.13974 18.125,-2.36229 7.21875,-0.19035 13.96875,-0.62005 15,-0.95491 1.03125,-0.33485 7.5,-1.27925 14.375,-2.09866 6.875,-0.81943 15.03125,-2.21997 18.125,-3.11232 3.09375,-0.89235 8.15625,-1.94178 11.25,-2.33207 3.09375,-0.39029 7.03125,-1.00604 8.75,-1.36835 10.07831,-2.12448 33.60995,-5.74456 40.625,-6.2497 2.0625,-0.14853 4.94729,-0.65241 6.41064,-1.11976 2.55257,-0.81522 9.0253,-1.3499 33.58936,-2.77468 21.44704,-1.24399 35.74636,-3.15017 49.52128,-6.60147 5.0758,-1.27175 10.35372,-2.32273 11.72872,-2.33552 1.375,-0.0127 5.3125,-0.69246 8.75,-1.51037 3.4375,-0.81791 9.68898,-1.9282 13.89217,-2.46733 4.20319,-0.53911 8.41944,-1.46058 9.36945,-2.04772 0.95,-0.58714 4.26103,-1.4553 7.35783,-1.92925 3.0968,-0.47395 14.63055,-2.9006 25.63055,-5.39255 11,-2.49195 21.26562,-4.80881 22.8125,-5.1486 1.54687,-0.33979 2.8125,-1.47061 2.8125,-2.51296 0,-1.04234 0.87431,-3.22953 1.94293,-4.86043 3.26727,-4.98651 -6.13629,-5.54106 -25.69293,-1.51519 -5.15625,1.06145 -12.04688,2.3062 -15.3125,2.76609 -3.26563,0.4599 -5.9375,1.23166 -5.9375,1.71501 0,0.84404 -13.42295,3.56402 -31.875,6.45903 -4.8125,0.75505 -14.65625,1.81852 -21.875,2.36329 -14.1793,1.07005 -29.11759,3.40201 -33.125,5.17105 -1.375,0.60697 -4.1875,1.12312 -6.25,1.14697 -10.6682,0.12337 -20.7388,1.45981 -25.625,3.40049 -2.51774,0.99997 -4.23333,1.26214 -13.75,2.1012 -4.46875,0.394 -13.1875,1.59027 -19.375,2.65839 -6.1875,1.06811 -13.35938,2.24746 -15.9375,2.62076 -2.57813,0.3733 -4.6875,1.1409 -4.6875,1.70577 0,0.56488 -0.98438,1.25719 -2.1875,1.53847 -1.32185,0.30903 -0.36196,0.8895 2.42562,1.46682 3.07693,0.63724 6.61513,0.32661 10.625,-0.93282 3.30654,-1.03853 9.02456,-2.20039 12.70673,-2.58194 3.68216,-0.38155 7.33841,-1.199 8.125,-1.81656 0.78657,-0.61755 2.2739,-1.19256 3.30515,-1.27778 1.03125,-0.0852 5.53125,-0.4452 10,-0.79995 18.64805,-1.48041 44.8968,-4.67535 52.1319,-6.34539 4.26629,-0.98477 10.06889,-1.79048 12.89467,-1.79048 2.82578,0 6.09182,-0.51059 7.25786,-1.13463 1.16604,-0.62405 5.79302,-1.43712 10.28217,-1.80684 4.48914,-0.36971 9.63222,-1.23116 11.42906,-1.91431 1.79684,-0.68316 5.71101,-1.56595 8.69816,-1.96175 2.98715,-0.3958 13.30618,-1.75857 22.93118,-3.0284 9.625,-1.26982 18.625,-1.8803 20,-1.35662 3.3683,1.28285 1.07887,2.02827 -9.375,3.05247 -7.9014,0.77411 -25.58305,3.67126 -30.625,5.01791 -2.17144,0.57998 -11.1524,1.8319 -26.875,3.74635 -2.40625,0.29299 -7.1875,1.06197 -10.625,1.70882 -17.38554,3.27156 -21.07305,3.79763 -22.11328,3.15473 -0.62228,-0.3846 -2.08887,-0.26013 -3.25908,0.27659 -1.1702,0.53671 -7.47139,1.66568 -14.00264,2.50879 -6.53125,0.84311 -17.78125,2.42749 -25,3.52084 -7.21875,1.09333 -14.8125,2.22266 -16.875,2.5096 -2.0625,0.28693 -7.57148,1.42501 -12.24218,2.52906 -4.67068,1.10404 -8.90673,1.75114 -9.41343,1.43797 -0.5067,-0.31316 -5.55858,0.23537 -11.2264,1.21894 -17.85979,3.09933 -28.18965,4.60378 -33.83283,4.92746 -3.00566,0.1724 -5.81816,0.79824 -6.25,1.39074 -0.43184,0.5925 -4.55065,1.10231 -9.15291,1.13291 -5.87195,0.039 -9.041,0.65729 -10.625,2.07282 -2.06423,1.84467 -7.49754,2.91316 -21.00725,4.13117 -4.07326,0.36724 -20.02046,0.5152 -40.625,0.37695 -1.71875,-0.0113 -4.25,0.0395 -5.625,0.11338 -1.375,0.0739 -6.57564,0.1035 -11.55696,0.0658 -8.8744,-0.0673 -22.23518,1.78437 -27.19304,3.76857 -1.375,0.5503 -7,1.6558 -12.5,2.45666 -9.91774,1.44414 -16.72596,3.41163 -17.03636,4.92327 -2.06018,10.03288 1.10952,14.33287 7.55702,10.25178 z M 300,649.17767 c 0,-2.42931 -0.81314,-5.90998 -1.80698,-7.73481 -0.99382,-1.82482 -2.77272,-5.56786 -3.95309,-8.31786 -1.18038,-2.75 -3.38006,-6.6875 -4.88818,-8.75 -1.50811,-2.0625 -3.17547,-5.15625 -3.70525,-6.875 -0.52976,-1.71875 -1.7471,-4.66598 -2.70519,-6.5494 -0.95807,-1.88343 -1.79176,-3.85218 -1.85262,-4.375 -0.10638,-0.91403 -6.07825,-13.28128 -8.90934,-18.4506 -0.75305,-1.375 -4.28314,-8.125 -7.84464,-15 -8.53309,-16.47198 -10.95276,-20.67915 -15.51671,-26.9795 -2.0999,-2.89883 -3.818,-5.82711 -3.818,-6.5073 0,-0.68019 -1.6875,-3.97924 -3.75,-7.33123 -2.0625,-3.352 -3.75,-6.7042 -3.75,-7.44933 0,-1.86517 -3.7123,-9.78113 -6.47196,-13.8006 -1.25293,-1.82488 -2.27804,-3.88517 -2.27804,-4.5784 0,-0.69324 -1.96794,-4.24859 -4.37319,-7.90078 -2.40525,-3.6522 -5.8609,-10.59191 -7.67921,-15.42161 -1.81831,-4.82969 -3.71339,-9.34375 -4.21129,-10.03125 -1.92869,-2.66319 -15.49394,-28.53695 -18.02232,-34.375 -0.44663,-1.03125 -1.5138,-3 -2.37152,-4.375 -0.85769,-1.375 -3.10063,-5.3125 -4.98428,-8.75 -1.88367,-3.4375 -4.5349,-7.9375 -5.89167,-10 -1.35674,-2.0625 -4.38813,-7.57279 -6.73641,-12.24509 -2.34827,-4.6723 -4.76434,-9.1723 -5.36905,-10 -0.6047,-0.8277 -2.40786,-4.87991 -4.00701,-9.00491 -1.59916,-4.125 -5.59996,-13.125 -8.89068,-20 -3.29072,-6.875 -7.70555,-16.15625 -9.81073,-20.625 -2.10519,-4.46875 -5.19763,-10.65625 -6.87209,-13.75 -6.14873,-11.36049 -9.72903,-18.3378 -14.11117,-27.5 -2.46618,-5.15625 -5.46903,-10.78125 -6.67303,-12.5 -1.204,-1.71875 -4.03942,-7.625 -6.30094,-13.125 -2.26153,-5.5 -5.14316,-11.34149 -6.40364,-12.98108 -1.26047,-1.63958 -2.30102,-4.17083 -2.31233,-5.625 -0.0112,-1.45416 -1.40825,-4.89392 -3.1043,-7.64392 -1.696058,-2.75 -4.244058,-7.53125 -5.662224,-10.625 -3.1144,-6.7941 -14.189372,-29.70131 -18.130169,-37.5 -1.563318,-3.09375 -3.55602,-8.15625 -4.428226,-11.25 -0.872205,-3.09375 -2.274841,-6.46875 -3.11697,-7.5 -0.842128,-1.03125 -3.259887,-5.53125 -5.372799,-10 -2.11291,-4.46875 -4.369958,-8.96875 -5.015663,-10 -0.645704,-1.03125 -2.86614,-5.60081 -4.934304,-10.15458 -2.342476,-5.15776 -5.242176,-9.33477 -7.690494,-11.07812 -2.16161,-1.5392 -5.287731,-5.6884 -6.946936,-9.22043 C 37.66815,129.76484 35.734142,126.03125 35.02956,125 c -0.704581,-1.03125 -1.853551,-3.28125 -2.553266,-5 -0.699717,-1.71875 -3.491612,-5.92033 -6.204214,-9.33683 -3.626525,-4.56759 -4.742621,-6.96639 -4.216531,-9.0625 0.889961,-3.545891 -1.315114,-3.744013 -4.197892,-0.37717 -1.233922,1.44111 -2.440852,1.95091 -2.891702,1.22141 -0.635741,-1.02865 -9.980114,1.67706 -9.9613618,2.88436 0.035486,2.28469 7.7327438,18.93257 10.3079068,22.29428 1.890625,2.46809 3.4375,5.34984 3.4375,6.40389 0,1.05405 0.84375,2.6167 1.875,3.47256 1.03125,0.85586 1.875,2.08726 1.875,2.73646 0,0.64919 1.350457,2.97094 3.001016,5.15944 3.658008,4.85021 9.437276,14.97454 14.758296,25.8541 2.185595,4.46875 5.620928,10.9375 7.634072,14.375 2.013143,3.4375 3.56325,6.4052 3.44468,6.5949 -0.118575,0.1897 1.50061,3.72214 3.598177,7.84989 2.097568,4.12774 3.813759,8.485 3.813759,9.68278 0,1.1978 1.592277,4.1341 3.538395,6.52513 1.946117,2.39101 5.07123,7.7223 6.944694,11.8473 1.873463,4.125 4.578521,9.75 6.01124,12.5 1.432717,2.75 5.069111,9.73748 8.080875,15.52772 3.011762,5.79025 6.137057,11.32434 6.945098,12.29798 0.808043,0.97362 2.441233,4.53051 3.629313,7.90417 1.188079,3.37368 3.327949,7.61858 4.755265,9.43312 1.42732,1.81454 2.59512,3.84141 2.59512,4.50417 0,1.4974 3.95826,10.10708 5.03783,10.95784 1.74708,1.37681 9.71868,16.10552 11.21003,20.7122 2.21203,6.83281 5.86226,13.92439 10.57138,20.5378 2.20291,3.09375 4.76966,7.59375 5.70387,10 0.93422,2.40625 2.99869,6.1156 4.58773,8.24299 1.58904,2.1274 2.88916,4.4648 2.88916,5.19423 0,0.72943 1.96875,3.68269 4.375,6.56278 2.40625,2.88009 4.375,6.00231 4.375,6.93826 0,0.93595 1.58509,4.39835 3.52243,7.69423 1.93732,3.29588 5.65507,10.49251 8.26166,15.99251 10.04214,21.1893 12.34725,25.63536 14.00365,27.01006 0.94175,0.78158 1.71461,2.0553 1.7175,2.83049 0.003,0.7752 1.40912,4.17666 3.125,7.5588 1.71586,3.38214 3.11976,6.93974 3.11976,7.90579 0,0.96603 2.25,6.02707 5,11.24675 2.75,5.21966 5,10.29138 5,11.2705 0,0.97911 1.875,3.97071 4.16666,6.64801 2.29168,2.6773 4.18503,5.57921 4.20747,6.44871 0.0224,0.86949 2.36617,5.64177 5.20832,10.60505 2.84215,4.96329 5.16755,9.36028 5.16755,9.77109 0,0.41083 2.48002,5.91245 5.51118,12.22585 3.03113,6.31339 6.39861,13.63897 7.48327,16.27905 1.11341,2.71006 3.06796,5.08673 4.48884,5.45829 2.34121,0.61225 3.09581,1.93165 2.61626,4.57448 -0.10812,0.59562 0.66906,2.40395 1.72698,4.01853 1.05791,1.61457 1.92347,4.29276 1.92347,5.95151 0,1.65876 0.84375,3.71618 1.875,4.57204 1.03125,0.85586 1.875,2.25512 1.875,3.10949 0,0.85435 1.03498,2.89485 2.29994,4.53443 1.26497,1.63959 2.9638,4.92563 3.77517,7.3023 0.81138,2.37668 2.50719,5.47043 3.76847,6.875 3.45087,3.84293 12.65642,22.35898 12.65642,25.45714 0,0.64104 0.8351,1.8586 1.85579,2.70569 1.02067,0.84709 3.11991,4.15034 4.66496,7.34056 4.34035,8.96195 8.71927,15.39545 13.15131,19.32188 2.36256,2.09305 4.64678,5.74831 5.48793,8.78193 C 290.41447,652.86269 300,657.71699 300,649.17767 Z m 18.59765,-2.80706 c 3.33269,-2.11089 0.0511,-4.18433 -5.61211,-3.546 -3.43985,0.38771 -5.9027,0.0539 -6.70127,-0.90831 -1.66513,-2.00636 -0.35666,-3.1663 3.57177,-3.1663 1.89432,0 4.33596,-1.33438 6.01313,-3.28623 l 2.82378,-3.28622 10.34102,2.48795 c 10.60502,2.55146 16.52329,2.60503 30.96603,0.28024 9.6851,-1.55898 14.84794,-2.24289 17.8125,-2.35961 5.2996,-0.20866 1.4844,-2.30348 -5.53059,-3.03669 -4.24494,-0.44368 -8.63455,-1.63609 -9.75467,-2.64979 -1.69882,-1.5374 -3.8425,-1.63789 -12.92485,-0.60589 -5.98854,0.68047 -12.1458,1.1821 -13.68282,1.11474 -11.94706,-0.52357 -18.28151,-0.39725 -21.21303,0.42304 -4.14595,1.1601 -8.45654,-2.4353 -8.45654,-7.05349 0,-1.63456 -0.87026,-3.69419 -1.93393,-4.57695 -1.06365,-0.88276 -3.35773,-4.46726 -5.09797,-7.96556 -1.74023,-3.49829 -3.95391,-7.76679 -4.91931,-9.48554 -1.65054,-2.93856 -3.87842,-7.94793 -8.52079,-19.15888 -1.08954,-2.63113 -3.67905,-7.29996 -5.75449,-10.37516 -2.07543,-3.07521 -3.77351,-6.06607 -3.77351,-6.64636 0,-0.58029 -4.5,-9.68142 -10,-20.22476 -5.5,-10.54333 -10,-19.68899 -10,-20.3237 0,-2.07659 -7.69374,-17.50479 -11.91653,-23.89614 -2.27116,-3.4375 -4.85938,-7.9375 -5.75161,-10 -0.89221,-2.0625 -2.93377,-5.52586 -4.53681,-7.69636 -1.60303,-2.17049 -4.86964,-7.79549 -7.25914,-12.5 -2.3895,-4.7045 -4.8256,-9.39739 -5.41356,-10.42864 -0.58795,-1.03125 -2.03009,-4.125 -3.20474,-6.875 -1.17464,-2.75 -4.0554,-7.90783 -6.40166,-11.46184 -2.34628,-3.554 -4.26595,-7.08689 -4.26595,-7.85083 0,-0.76395 -2.18534,-5.2455 -4.85631,-9.959 -2.67097,-4.7135 -5.52134,-10.58507 -6.33415,-13.04792 C 195.0939,404.62199 182.94829,380.07853 163.43569,341.875 157.12327,329.51599 145,302.51886 145,300.82086 c 0,-0.95354 -1.10045,-3.13271 -2.44544,-4.84259 -1.34499,-1.70987 -3.54484,-5.86386 -4.88855,-9.23107 -2.7533,-6.8995 -12.31122,-25.49533 -14.03669,-27.3097 -0.62113,-0.65313 -1.12932,-2.40275 -1.12932,-3.88806 0,-1.48532 -1.28604,-4.60719 -2.85786,-6.9375 -1.57183,-2.33032 -3.63879,-6.20569 -4.59325,-8.61194 -0.95446,-2.40625 -2.76217,-5.86809 -4.01713,-7.69296 -1.25497,-1.82488 -2.28176,-3.8584 -2.28176,-4.51893 0,-0.66053 -1.05312,-2.54245 -2.34028,-4.18204 -1.28715,-1.63958 -2.72491,-5.26554 -3.19502,-8.05769 -0.47011,-2.79214 -2.22948,-6.67652 -3.909721,-8.63193 C 97.62474,204.96104 96.25,202.87396 96.25,202.27852 c 0,-1.09245 -8.952981,-20.05272 -11.110094,-23.52852 -5.25795,-8.47225 -11.433567,-20.35779 -13.019231,-25.05667 -1.054519,-3.12493 -3.913736,-9.59368 -6.353815,-14.375 -2.44008,-4.78134 -4.78153,-10.66208 -5.203224,-13.06833 -0.421694,-2.40625 -1.059375,-5.87594 -1.41707,-7.71043 -0.724491,-3.71566 2.210247,-6.94825 10.532731,-11.60172 5.403104,-3.02112 7.263565,-8.89772 3.216917,-10.161205 -1.249168,-0.390026 -3.27847,-1.249634 -4.50956,-1.910239 -1.231091,-0.660605 -2.918591,-0.761634 -3.75,-0.224509 -2.904078,1.876155 -26.052872,2.259162 -29.444803,0.487177 C 32.890951,93.927056 25,94.761648 25,96.20702 c 0,0.5078 1.401807,2.834581 3.115127,5.17063 1.713319,2.33604 3.983214,6.2161 5.044209,8.62235 4.158838,9.4319 7.037866,14.97434 8.128625,15.64846 0.627471,0.3878 2.189122,3.07241 3.470332,5.96581 1.28121,2.8934 4.594785,7.61666 7.363499,10.49612 3.575403,3.71841 5.274568,6.73966 5.864191,10.42695 0.456591,2.85536 2.456248,7.24943 4.443683,9.76461 1.987435,2.51517 5.091476,8.2293 6.897872,12.69805 5.038763,12.46515 10.938242,25.44616 13.066006,28.75 0.664155,1.03125 1.514237,3.34703 1.889072,5.14616 0.374836,1.79915 2.57124,6.01834 4.880898,9.37599 2.309657,3.35765 4.98256,8.35438 5.939783,11.10384 0.957224,2.74946 3.329869,7.75592 5.272543,11.12549 1.94268,3.36956 4.399,8.71331 5.45851,11.875 1.0595,3.16168 2.71145,6.63656 3.67101,7.72195 0.95955,1.08538 1.74464,2.55593 1.74464,3.26788 0,0.71197 2.53125,6.38858 5.625,12.61471 3.09375,6.22614 5.625,12.20872 5.625,13.29462 0,1.0859 0.52113,1.97436 1.15806,1.97436 0.63694,0 2.70756,3.23437 4.6014,7.1875 1.89383,3.95312 4.40078,8.59375 5.57098,10.3125 2.40693,3.53519 11.6832,21.85046 16.77705,33.125 1.86368,4.125 5.36335,11.71875 7.77702,16.875 2.41369,5.15625 5.78142,12.46875 7.48385,16.25 5.2122,11.57671 9.62865,20.47182 11.79198,23.75 1.13423,1.71875 3.83112,6.5 5.9931,10.625 2.16196,4.125 4.4094,8.34375 4.9943,9.375 0.5849,1.03125 5.72073,11.4375 11.41298,23.125 5.69224,11.6875 11.68527,23.06916 13.31783,25.29257 1.63256,2.22343 3.76037,6.2876 4.72847,9.0315 1.78819,5.06824 3.44263,8.44737 19.2438,39.30465 4.89455,9.55829 8.93879,17.99579 8.9872,18.75 0.0484,0.7542 2.27384,4.74628 4.9454,8.87128 2.67155,4.125 5.91553,9.75 7.20883,12.5 1.2933,2.75 3.28662,5.772 4.4296,6.71555 1.14299,0.94356 2.07815,2.63999 2.07815,3.76984 0,1.12986 2.25,5.90461 5,10.61056 2.75,4.70595 5,9.30445 5,10.21889 0,0.91443 0.52026,1.98416 1.15614,2.37715 1.38474,0.85581 12.59386,21.69781 12.59386,23.41674 0,2.61826 13.77076,29.76627 15.09886,29.76627 0.78024,0 1.11594,0.78876 0.746,1.75279 -1.24556,3.2459 9.62587,4.89012 14.00279,2.11782 z m 164.20501,-17.18267 c 2.47891,-1.53205 -1.77794,-2.50742 -7.29145,-1.67066 -9.1813,1.39336 -10.30545,4.23695 -1.2795,3.23652 4.04619,-0.44847 7.90311,-1.15311 8.57095,-1.56586 z m -141.63915,-6.19108 c 4.71001,-0.76325 3.17286,-2.94182 -2.10101,-2.97772 -2.49276,-0.017 -3.38743,-1.22258 -2.98173,-4.01804 0.0697,-0.48064 -4.35978,-0.66875 -9.84342,-0.41801 -9.99946,0.4572 -11.36448,-0.0271 -11.81171,-4.19056 -0.68618,-6.38785 -6.17245,-17.56238 -7.81569,-15.91914 -0.33954,0.33954 0.60779,4.57576 2.10515,9.41386 1.49737,4.83809 2.56817,10.07705 2.37956,11.64214 -0.94845,7.87022 8.65966,9.93682 30.06885,6.46747 z M 491.25,620.58336 c 7.21875,-1.09261 14.8125,-2.46937 16.875,-3.05948 2.0625,-0.59012 6.22396,-1.46292 9.24769,-1.93957 3.02372,-0.47665 7.36503,-1.64686 9.64735,-2.60047 2.28231,-0.95362 5.34835,-1.73384 6.8134,-1.73384 1.46506,0 4.43625,-0.81299 6.60265,-1.80664 3.86136,-1.77106 12.59775,-3.7355 25.3416,-5.69823 3.52148,-0.54237 7.45898,-1.52585 8.75,-2.18552 3.3554,-1.71451 14.0787,-4.30246 19.27407,-4.65158 2.43473,-0.16362 6.65348,-1.69697 9.375,-3.40745 2.72154,-1.71049 6.35449,-3.44903 8.07324,-3.86343 11.7283,-2.82771 16.29411,-4.2578 21.25,-6.65585 l 5.625,-2.72182 -4.69301,-0.89489 c -3.36849,-0.64231 -5.5323,-0.34496 -7.66673,1.05356 -1.63552,1.07164 -4.02367,1.91049 -5.30697,1.86409 -5.87024,-0.21221 -41.08329,11.44872 -41.08329,13.6049 0,0.77249 -0.42188,1.8264 -0.9375,2.34202 -0.51563,0.51563 -0.9375,0.21739 -0.9375,-0.66276 0,-1.9528 -6.26063,-1.18922 -24.375,2.97293 -6.875,1.57967 -18.125,4.1145 -25,5.63295 -6.875,1.51846 -13.625,3.22536 -15,3.79312 -8.77853,3.62483 -20.22004,6.44332 -39.0625,9.62264 -2.37894,0.4014 -4.0625,1.42931 -4.0625,2.48036 0,1.32431 1.06507,1.62534 4.0625,1.1482 2.23437,-0.35567 9.96875,-1.54064 17.1875,-2.63324 z m -75.14969,-0.10775 c 7.41031,-1.13991 2.37629,-2.43701 -7.66281,-1.97445 -7.4415,0.34288 -9.6875,0.86815 -9.6875,2.26566 0,1.8199 4.07061,1.75158 17.35031,-0.29121 z m -5.61269,-6.20217 c 10.23694,-0.9754 19.66359,-1.77344 20.94809,-1.77344 1.96227,0 2.10391,-0.37077 0.88643,-2.32029 -1.12299,-1.79819 -2.18013,-2.09569 -4.69809,-1.3221 -7.47955,2.29789 -18.9394,3.4489 -22.91245,2.30128 -5.36475,-1.54961 -39.77573,-0.0833 -42.09113,1.79371 -0.965,0.78224 -2.85461,1.23589 -4.19913,1.0081 -1.34454,-0.22777 -2.14655,0.0681 -1.78224,0.6576 1.09089,1.7651 33.90961,1.55491 53.84852,-0.34487 z m 36.55953,-2.15392 c 0.47824,-0.47825 2.11332,-0.86952 3.63352,-0.86952 2.83092,0 11.81933,-3.31912 11.81933,-4.36449 0,-1.12518 -12.90451,0.519 -14.19399,1.80848 C 447.5877,609.4123 445.9875,610 444.75,610 c -1.2375,0 -2.25,0.79398 -2.25,1.7644 0,1.7655 2.90955,1.99272 4.54715,0.35511 z m -110.21036,-2.28963 c 0.39343,-0.39344 -1.95013,-2.08704 -5.20792,-3.76355 -4.43687,-2.2833 -6.1379,-3.97583 -6.77866,-6.74478 -1.20594,-5.21132 -5.42306,-16.33512 -8.98357,-23.69655 -1.66262,-3.4375 -3.73472,-8.5 -4.60465,-11.25 -1.97464,-6.24207 -2.87304,-8.16964 -8.15638,-17.5 C 298.27267,538.34002 292.5,526.78449 292.5,525.64505 c 0,-0.42083 -1.8971,-3.73079 -4.21579,-7.35548 -2.31868,-3.62468 -6.3067,-11.89453 -8.86227,-18.37746 -2.55557,-6.48291 -5.64868,-13.75586 -6.87358,-16.16211 -1.2249,-2.40625 -3.39466,-7.1875 -4.82171,-10.625 -6.34857,-15.29258 -9.81069,-22.01653 -17.20291,-33.4107 -1.66307,-2.56339 -3.02374,-5.12311 -3.02374,-5.6883 0,-1.32566 -2.28604,-6.50694 -6.40629,-14.51975 -1.8047,-3.50969 -6.49037,-12.66296 -10.4126,-20.3406 -7.29894,-14.28747 -9.37085,-17.03232 -13.89309,-18.40545 -3.44198,-1.04512 -11.48951,-15.66274 -13.83783,-25.1352 -1.71623,-6.92274 -5.88344,-16.85905 -8.36773,-19.95202 -1.90432,-2.3709 -8.2062,-13.70144 -11.498,-20.67298 -6.02874,-12.76795 -8.26224,-16.87024 -9.87167,-18.13139 C 171.32956,295.39291 160,274.07454 160,272.00665 c 0,-0.77761 -1.26563,-1.97328 -2.8125,-2.65704 -2.04173,-0.9025 -2.7212,-2.13609 -2.47936,-4.50122 0.18322,-1.79191 -0.5199,-3.96599 -1.5625,-4.83126 -1.0426,-0.86528 -1.89564,-2.28402 -1.89564,-3.15274 0,-0.86873 -2.25,-4.94891 -5,-9.06707 -2.75,-4.11816 -5,-8.28851 -5,-9.26743 0,-4.09679 -9.04791,-7.01115 -10.2811,-3.31159 -1.44106,4.32318 3.61114,17.27967 10.39437,26.6567 2.48666,3.4375 4.88111,7.09375 5.32101,8.125 0.43989,1.03125 1.32531,2.71875 1.96757,3.75 0.64227,1.03125 1.49689,2.71875 1.89912,3.75 0.40225,1.03125 2.01224,4.125 3.57777,6.875 5.32937,9.3616 6.93258,12.498 16.31293,31.91343 9.76303,20.20748 22.05833,48.40856 22.05833,50.59401 0,0.69435 1.45209,3.99019 3.22686,7.32408 3.5765,6.71845 3.35694,12.5318 -0.44566,11.79949 -1.46164,-0.28149 -2.39711,-2.16961 -2.98286,-6.02056 -0.73363,-4.82301 -4.9687,-16.60961 -8.45024,-23.51776 -0.58006,-1.15098 -2.89544,-6.59269 -5.14526,-12.09269 -7.06781,-17.27824 -36.67053,-75.97389 -40.6626,-80.625 -0.88513,-1.03125 -3.47816,-5.45943 -5.76229,-9.84038 -7.02064,-13.46561 -7.62513,-14.50922 -8.88106,-15.33237 -0.66945,-0.43875 -0.79752,-1.47676 -0.2846,-2.30669 0.51292,-0.82992 0.36785,-2.72093 -0.32238,-4.20225 -0.69022,-1.48132 -1.98638,-5.22456 -2.88035,-8.31831 -0.89397,-3.09375 -2.64559,-7.11809 -3.89248,-8.94296 -1.2469,-1.82488 -2.26708,-3.7309 -2.26708,-4.2356 0,-0.5047 -4.46708,-9.98037 -9.92684,-21.05704 C 98.363401,178.43772 93.050336,167.40625 92.016351,165 c -1.033985,-2.40625 -2.839512,-6.0625 -4.012284,-8.125 -1.17277,-2.0625 -2.609706,-4.73438 -3.193188,-5.9375 -1.556009,-3.20845 -3.79895,-7.54621 -5.009134,-9.6875 C 77.612858,137.37701 72.5,126.37659 72.5,125.54014 c 0,-0.47853 -1.208866,-2.82604 -2.686369,-5.21669 -3.148112,-5.09375 -5.783998,-3.03846 -3.570336,2.78392 0.691188,1.81796 1.256705,4.63393 1.256705,6.25772 0,3.29363 5.631458,16.19682 15.279711,35.00991 9.359318,18.2497 14.248888,28.02521 17.193874,34.375 1.434865,3.09375 3.676225,7.59375 4.980805,10 1.30458,2.40625 2.98945,6.7434 3.74416,9.6381 0.75471,2.8947 3.41896,7.9445 5.92056,11.22177 2.5016,3.27728 7.85172,13.28388 11.88915,22.2369 7.8798,17.47347 13.99073,30.54811 19.87718,42.52823 2.02682,4.125 3.66926,8.00822 3.64985,8.62939 -0.0505,1.61821 6.20839,14.76706 8.09002,16.99561 0.87073,1.03125 2.89415,5.53125 4.4965,10 1.60235,4.46875 4.18693,10.01355 5.74352,12.32176 1.55658,2.30823 4.28512,7.37073 6.06341,11.25 5.19111,11.32422 9.51507,19.36759 11.85538,22.05324 1.1982,1.375 2.55703,3.90625 3.01963,5.625 1.03456,3.84383 4.76275,12.89804 5.66175,13.75 0.36272,0.34375 2.62825,4.84172 5.0345,9.99551 2.40625,5.15379 5.5,11.07414 6.875,13.15634 1.375,2.08221 3.52459,6.30299 4.77685,9.37949 2.13787,5.2522 3.97825,9.10277 8.64782,18.09366 1.0712,2.0625 3.13124,6.0797 4.57788,8.92711 5.81016,11.4362 11.47935,20.75766 12.19144,20.04556 0.27998,-0.27998 -0.30303,-2.13212 -1.2956,-4.11587 -1.81914,-3.63571 -7.14464,-20.29873 -7.04728,-22.05026 0.11725,-2.10979 -4.14918,-10.76527 -8.91907,-18.09428 -2.78763,-4.28326 -5.15024,-9.20474 -5.25023,-10.93662 -0.1,-1.73188 -0.53545,-3.14928 -0.96766,-3.14975 -0.43221,-4.9e-4 -1.52967,-1.82902 -2.43879,-4.06339 -0.90911,-2.23438 -3.5443,-7.04441 -5.85599,-10.68898 -4.02795,-6.35042 -4.83673,-10.26012 -2.16937,-10.4868 0.6875,-0.0584 1.90225,1.17228 2.69945,2.73489 0.7972,1.56261 1.97967,3.187 2.62772,3.60975 1.61282,1.05211 4.93724,8.65215 5.91707,13.52714 0.44312,2.20469 3.57882,8.62259 6.96822,14.26203 3.3894,5.63942 6.16254,11.22853 6.16254,12.42024 0,1.19172 0.79577,2.47213 1.76838,2.84535 1.93404,0.74217 3.15953,2.7876 10.61288,17.71388 2.74639,5.5 6.91809,12.6692 9.27043,15.93155 2.35233,3.26236 6.10593,10.57486 8.34132,16.25 2.23539,5.67515 5.46996,11.827 7.18794,13.67079 1.71797,1.84377 3.59239,5.50002 4.16537,8.125 0.57298,2.62496 1.42749,6.46016 1.8989,8.52266 1.12985,4.9432 17.62243,39.12157 20.80972,43.125 l 2.48793,3.125 -0.91577,-4.375 c -0.50368,-2.40625 -1.32171,-4.9375 -1.81784,-5.625 -0.49613,-0.6875 -2.20427,-4.90625 -3.79586,-9.375 -1.59159,-4.46875 -4.21445,-11.0948 -5.8286,-14.72455 -1.61414,-3.62974 -2.9348,-7.15513 -2.9348,-7.83417 0,-0.67906 -2.75465,-6.14677 -6.12144,-12.15047 -3.36679,-6.0037 -6.9865,-13.44706 -8.04379,-16.54081 -2.66812,-7.80723 -10.38037,-23.06678 -12.58118,-24.89329 -2.01602,-1.67313 -8.25359,-13.07251 -8.25359,-15.0837 0,-2.4764 3.59399,-1.23261 4.44845,1.53949 0.47681,1.54687 2.48348,5.03269 4.45924,7.74625 1.97577,2.71356 3.59231,5.62354 3.59231,6.4666 0,0.84306 1.26562,3.12287 2.8125,5.06624 2.70894,3.40331 6.1618,9.94768 10.10812,19.15841 2.92365,6.82381 6.93594,15.20699 9.57227,20 2.52629,4.59299 7.58291,17.00735 8.02425,19.70015 0.142,0.86634 0.92747,2.24446 1.74551,3.0625 0.81805,0.81805 1.48735,2.76842 1.48735,4.33417 0,1.56575 1.57839,5.81263 3.50754,9.4375 1.92913,3.62488 4.23095,9.07885 5.11512,12.11997 0.88418,3.0411 3.8775,9.714 6.65184,14.82866 4.55275,8.39329 6.5921,13.04181 11.55216,26.33217 2.0581,5.51462 15.69465,8.08023 20.01013,3.76476 z M 238.74971,449.0625 c -7.27915,-15.87046 -15.60854,-32.00236 -20.0647,-38.86026 -2.71426,-4.17715 -4.93501,-8.09935 -4.93501,-8.716 0,-0.61665 -1.40625,-2.63855 -3.125,-4.49312 -1.71875,-1.85456 -3.12846,-4.32732 -3.1327,-5.49502 -0.004,-1.1677 -0.84799,-3.73428 -1.875,-5.70349 -2.26379,-4.34061 -2.27754,-4.54539 -0.3048,-4.54164 0.85937,0.001 3.23644,3.236 5.28236,7.1875 4.84896,9.36529 13.78248,24.56445 18.31454,31.15975 1.97483,2.87387 3.5906,5.7814 3.5906,6.4612 0,1.45375 3.99686,9.27373 5.2134,10.20015 0.46111,0.35117 1.25631,2.30362 1.76711,4.3388 0.5108,2.03519 2.00629,5.52667 3.3233,7.75884 2.25221,3.81721 2.13908,6.64079 -0.26607,6.64079 -0.5856,0 -2.2902,-2.67188 -3.78803,-5.9375 z m 120.99195,158.38665 c 2.82518,-4.52381 -10.32127,-6.35149 -15.62441,-2.17216 -0.82925,0.65353 -2.03594,0.86178 -2.68151,0.4628 -1.32486,-0.8188 -2.92183,2.35745 -1.76628,3.513 2.17086,2.17087 18.5068,0.70297 20.0722,-1.80364 z M 791.25,607.36167 c 13.24766,-2.52234 18.57,-6.88945 13.80581,-11.32796 -2.77713,-2.5873 -9.96002,-2.01131 -27.86686,2.2346 -4.80305,1.13885 -9.37872,1.57569 -10.625,1.01434 -1.20392,-0.54225 -7.1196,-1.08595 -13.14594,-1.20819 -7.72429,-0.1567 -11.59663,-0.7793 -13.125,-2.11026 -4.50766,-3.92544 -8.92755,-3.35124 -11.52217,1.49686 -4.61123,8.61616 35.68675,15.00188 62.47916,9.90061 z m 333.9122,-0.5997 c 5.9156,-0.75621 6.9786,-1.77618 9.6524,-9.26197 4.1205,-11.53562 -15.9103,-16.31951 -26.6976,-6.37611 l -5.0873,4.68931 -13.0773,0.2565 c -7.1926,0.14107 -16.4524,0.87519 -20.5774,1.63136 -4.125,0.75616 -22.4062,1.48972 -40.625,1.6301 -31.90104,0.24583 -44.3629,1.16589 -43.11609,3.18326 1.66249,2.68997 8.9625,3.22558 57.37919,4.21 20.5635,0.4181 37.6756,1.04758 38.0268,1.39882 0.7691,0.76907 35.9477,-0.31625 44.1223,-1.36127 z m -822.2593,-6.38381 c -1.02288,-3.917 -2.93823,-8.49286 -4.25634,-10.16857 -1.31811,-1.6757 -2.39656,-4.29943 -2.39656,-5.83049 0,-2.51211 -6.52964,-16.41956 -11.44615,-24.3791 -1.06165,-1.71875 -3.84246,-7.48376 -6.17956,-12.81114 -3.98928,-9.09344 -6.48359,-11.73596 -7.68256,-8.13905 -0.98567,2.957 2.60672,11.63486 9.56439,23.10395 3.84664,6.34081 6.99388,12.08147 6.99388,12.75699 0,0.67552 1.40625,3.30045 3.125,5.83317 1.71875,2.53272 3.125,5.3687 3.125,6.30218 0,3.77817 8.7082,20.22634 10.81884,20.43476 0.10662,0.01 -0.64307,-3.18569 -1.66594,-7.1027 z M 390,605.0909 l 5.625,-1.06699 -6.25,-0.22961 c -3.4375,-0.12629 -8.78125,-0.6187 -11.875,-1.09426 -5.26387,-0.80914 -11.21767,0.53657 -11.24025,2.54059 -0.0235,2.08931 12.34762,2.01128 23.74025,-0.14973 z m 51.5902,-0.88076 c 5.534,-0.92545 6.9839,-2.45076 3.40832,-3.5856 -3.1583,-1.00242 -10.49078,1.32301 -12.71103,4.03117 -1.47352,1.79733 -1.30728,1.93207 1.46251,1.18539 1.71875,-0.46334 5.24684,-1.19728 7.8402,-1.63096 z M 460,601.25 c 0,-1.15954 -0.91576,-1.40768 -6.44955,-1.74757 -1.14101,-0.0701 -2.48509,-0.53402 -2.98685,-1.03094 -1.65069,-1.6348 -3.23143,0.44514 -1.72124,2.2648 C 450.49908,602.7325 460,603.16995 460,601.25 Z m 516.15332,0.0584 c -1.77192,-0.53721 -8.24067,-1.37253 -14.375,-1.85627 -6.13432,-0.48375 -13.40332,-1.47941 -16.15332,-2.21258 -2.75,-0.73317 -8.65625,-1.484 -13.125,-1.6685 -4.46875,-0.1845 -9.7403,-0.96306 -11.71455,-1.73011 -2.68926,-1.04487 -4.03496,-1.025 -5.36547,0.0793 -3.07378,2.55102 0.1235,3.81754 11.02315,4.36658 13.66775,0.68846 39.03926,3.05553 39.70271,3.70411 0.28645,0.28004 3.3802,0.46081 6.875,0.40172 5.06467,-0.0856 5.70037,-0.30566 3.13249,-1.08417 z m -639.38056,-3.31712 c 3.02834,-1.16208 2.35098,-4.09982 -1.14776,-4.97796 -7.62526,-1.91382 -2.02113,-6.0633 6.4693,-4.79008 3.87624,0.58128 6.24109,0.26694 8.34049,-1.10865 2.44781,-1.60386 4.35103,-1.70576 11.56022,-0.61896 10.38065,1.5649 28.00486,2.00032 28.00494,0.69189 5e-5,-0.8616 -4.14506,-1.50224 -6.70859,-1.03682 -0.596,0.10825 -2.93966,-0.41581 -5.20814,-1.16447 -2.26848,-0.74865 -8.95272,-1.3612 -14.85387,-1.3612 -9.66864,0 -10.72935,-0.23238 -10.72935,-2.35056 0,-1.45654 -1.03248,-2.50249 -2.71459,-2.75 -3.46066,-0.50922 -4.1883,-2.69298 -1.71981,-5.16148 2.22165,-2.22164 1.35129,-5.67679 -2.04579,-8.12134 -1.2484,-0.89836 -2.26981,-2.2763 -2.26981,-3.06208 0,-2.69703 -7.83176,-22.17954 -8.91594,-22.17954 -0.59623,0 -1.10161,-0.98438 -1.12307,-2.1875 -0.0215,-1.20313 -1.42483,-4.4375 -3.1186,-7.1875 -1.69377,-2.75 -3.08247,-5.88143 -3.08599,-6.95872 -0.005,-1.69269 -3.73556,-9.68288 -8.42215,-18.04128 -0.77096,-1.375 -1.72049,-3.34375 -2.11005,-4.375 -0.38956,-1.03125 -1.23803,-2.71875 -1.88549,-3.75 -0.64745,-1.03125 -1.91333,-3.70313 -2.81309,-5.9375 -0.89975,-2.23438 -2.02788,-4.0625 -2.50698,-4.0625 -2.12413,0 -1.84527,2.37544 1.00755,8.58272 1.74611,3.7993 2.73652,7.69572 2.30317,9.06108 -1.11461,3.51181 1.14295,9.55175 11.43973,30.60616 5.077,10.38123 9.23091,19.83294 9.23091,21.00381 0,1.17088 1.40625,4.19834 3.125,6.72772 1.71875,2.52936 3.125,5.46811 3.125,6.53055 0,1.06243 0.89706,3.21242 1.99346,4.77776 1.22723,1.7521 1.69854,4.02112 1.22619,5.90312 -1.43299,5.70948 -4.35015,3.28359 -6.84583,-5.69292 -0.86012,-3.09375 -2.55571,-7.875 -3.76796,-10.625 -1.21226,-2.75 -3.47391,-8.09375 -5.02591,-11.875 -3.11951,-7.6003 -9.77161,-21.53194 -24.98069,-52.31755 C 297.04467,488.93904 292.5,478.88762 292.5,477.84596 c 0,-1.04166 -1.90488,-5.06126 -4.23306,-8.93245 -2.32818,-3.87119 -5.70934,-10.30301 -7.51368,-14.29296 -1.80433,-3.98995 -4.33693,-8.38828 -5.628,-9.77408 -1.29106,-1.38578 -2.70092,-4.2873 -3.13302,-6.44779 -0.4321,-2.16051 -3.30713,-8.89089 -6.38894,-14.95641 C 262.52149,417.37675 260,411.77456 260,410.99295 c 0,-0.7816 -0.74843,-2.30914 -1.66316,-3.39453 -0.91474,-1.08538 -2.6684,-4.6967 -3.89702,-8.02515 -1.22861,-3.32845 -4.41768,-9.64641 -7.08683,-14.03991 -2.66914,-4.3935 -4.86198,-8.70147 -4.87295,-9.57327 -0.0112,-0.8718 -1.6688,-3.45544 -3.68403,-5.74141 -2.01524,-2.28598 -4.3241,-6.22348 -5.13081,-8.75 -0.80672,-2.52653 -2.7126,-5.99993 -4.23529,-7.71868 -1.52269,-1.71875 -4.64093,-7.0625 -6.92946,-11.875 -2.28851,-4.8125 -4.93891,-10.15625 -5.88979,-11.875 -0.95086,-1.71875 -2.81735,-5.375 -4.14775,-8.125 -1.33038,-2.75 -5.77366,-10.34375 -9.87395,-16.875 -4.10027,-6.53125 -7.48517,-12.33615 -7.522,-12.89977 -0.0369,-0.56364 -1.7329,-3.44615 -3.76905,-6.40559 -3.56586,-5.18281 -7.49197,-14.55031 -7.52972,-17.96554 -0.01,-0.90525 -1.42444,-3.48959 -3.14319,-5.74299 -1.71875,-2.2534 -3.125,-4.7864 -3.125,-5.62888 0,-1.55807 -6.67435,-11.87594 -9.62806,-14.88402 -0.89207,-0.90847 -1.62194,-2.38647 -1.62194,-3.28444 0,-0.89796 -0.77364,-2.27472 -1.7192,-3.05947 -0.94556,-0.78474 -2.43936,-4.08799 -3.31958,-7.34055 C 159.22027,220.43176 156.56855,215 154.9679,215 c -2.27084,0 0.26584,7.44377 6.95657,20.4138 1.00404,1.94634 1.82553,4.36809 1.82553,5.38165 0,1.01357 1.96875,5.55276 4.375,10.08709 4.9218,9.27461 5.17982,10.36746 2.44772,10.36746 -2.05469,0 -7.07273,-10.14214 -11.8179,-23.8856 -1.51716,-4.39416 -5.46428,-13.6144 -8.77138,-20.4894 C 139.85582,195.82111 135,184.94066 135,183.30164 c 0,-0.86126 -1.40625,-3.472 -3.125,-5.80164 -1.71875,-2.32964 -3.125,-4.92945 -3.125,-5.77738 0,-0.84791 -2.76659,-6.8783 -6.14798,-13.40083 -3.38139,-6.52254 -5.85583,-12.15132 -5.49877,-12.50838 0.35707,-0.35706 -0.72244,-2.51429 -2.39891,-4.79381 -2.88895,-3.92816 -7.20434,-12.35328 -7.20434,-14.06534 0,-0.4361 -2.53125,-6.06686 -5.625,-12.51281 -3.09375,-6.44593 -5.625,-13.1158 -5.625,-14.821931 0,-3.395735 -2.775943,-5.097141 -6.426096,-3.938628 -2.494678,0.791779 -3.121699,3.678503 -1.073904,4.944109 0.6875,0.4249 1.25,1.85321 1.25,3.17402 0,2.21091 5.052786,16.42403 7.642045,21.49652 0.609375,1.1938 1.107955,3.02192 1.107955,4.0625 0,1.04057 0.471092,1.89196 1.046871,1.89196 1.111449,0 7.133519,13.33476 6.317819,13.98965 -0.26398,0.21194 0.82177,2.21347 2.41279,4.44785 1.59102,2.23437 2.5568,4.0625 2.14618,4.0625 -0.59942,0 4.80995,11.60149 10.51009,22.54103 0.5491,1.05382 1.39404,3.86632 1.87764,6.25 0.48361,2.38368 1.79161,6.86522 2.90667,9.95897 1.79099,4.96914 3.07395,7.66115 8.638,18.125 1.79336,3.37261 6.43905,14.74921 9.36873,22.94263 2.75917,7.71654 13.34043,26.43237 14.94392,26.43237 0.59471,0 1.08129,1.37305 1.08129,3.05123 0,1.67817 0.63242,3.44208 1.40539,3.91981 0.77296,0.47771 3.00983,4.4071 4.97081,8.73196 1.96099,4.32486 4.1491,8.22411 4.86247,8.665 0.71338,0.44089 2.48958,3.15409 3.9471,6.02931 1.45754,2.87523 3.1134,5.52755 3.6797,5.89405 0.5663,0.36649 3.04917,4.86649 5.51749,10 8.0897,16.82462 13.00509,25.54991 15.58166,27.659 1.39445,1.14145 2.53538,2.79199 2.53538,3.66785 0,0.87587 1.22847,4.13018 2.72995,7.2318 1.56419,3.23118 2.61618,7.5675 2.46353,10.15469 -0.46419,7.86694 3.75148,15.4325 9.15839,16.43595 2.23479,0.41475 9.38249,10.28516 13.43986,18.55935 0.84281,1.71875 1.91202,3.40626 2.37602,3.75004 0.464,0.34377 4.28079,7.65627 8.48174,16.25 4.20096,8.59372 9.06835,18.29683 10.81641,21.56246 1.74808,3.26562 2.84483,5.9375 2.43723,5.9375 -1.113,0 1.75073,5.0407 5.79783,10.20525 1.97408,2.51915 5.57349,9.5504 7.9987,15.625 2.42522,6.07461 5.50992,13.42925 6.8549,16.34362 1.34499,2.91439 2.44544,5.65223 2.44544,6.08409 0,0.43187 3.13938,7.29064 6.97639,15.24172 3.83701,7.95108 7.86177,16.7445 8.9439,19.54092 1.08214,2.79643 2.70312,5.94935 3.60219,7.00653 0.89906,1.05716 4.23902,7.24466 7.42213,13.75 3.18312,6.50532 6.85169,13.79662 8.15238,16.20287 4.85289,8.97766 8.65301,18.46781 8.65301,21.60934 0,1.78371 0.47906,3.5392 1.06459,3.90107 0.58552,0.36188 2.07082,3.34819 3.30066,6.63627 3.40009,9.09039 5.37159,10.56486 11.15751,8.34458 z m 314.38333,-1.14954 c 10.6592,-1.88487 13.73,-2.95374 9.36475,-3.2596 C 651.52525,592.95182 635,595.64175 635,597.73631 c 0,1.45565 4.17134,1.22468 16.15609,-0.89459 z m -285.26775,-1.35802 c 0.43188,-1.31812 -8.27499,-3.51373 -9.41463,-2.37409 -0.2929,0.29291 -0.18569,1.4365 0.23828,2.54131 0.8831,2.30135 8.41247,2.16413 9.17635,-0.16722 z M 495.3125,595.3784 c 2.25476,-1.26494 0.74511,-3.10988 -1.875,-2.29141 -1.54688,0.48321 -3.79688,0.86502 -5,0.84847 -2.21655,-0.0305 -2.85669,1.22868 -1.37693,2.70844 0.75338,0.75339 6.12043,-0.0697 8.25193,-1.2655 z m 414.58334,0.0912 c 2.34347,-2.11346 -36.56285,-6.38881 -44.39384,-4.87835 -6.35067,1.22493 -2.82903,2.76798 6.78957,2.9749 3.66663,0.0789 8.9961,0.7707 11.8433,1.53738 2.84719,0.76666 7.72223,1.06527 10.83342,0.66356 3.1112,-0.4017 6.50046,-0.189 7.53171,0.47267 1.63558,1.04944 5.86679,0.60881 7.39584,-0.77016 z M 423.75,593.19786 c 3.09375,-0.3504 11.53125,-0.97219 18.75,-1.38176 30.01696,-1.70308 40.81333,-2.64919 42.54478,-3.7283 1.00662,-0.62738 3.79897,-1.28734 6.20522,-1.46659 13.5607,-1.01016 25.30467,-2.81795 26.89831,-4.14056 1.00091,-0.83069 2.68748,-1.1774 3.7479,-0.77048 1.06044,0.40693 4.02073,-0.0271 6.57843,-0.96461 8.94523,-3.27865 28.41841,-8.69286 32.14302,-8.93686 4.68727,-0.30706 20.52476,-4.12172 23.38689,-5.63303 1.24376,-0.65675 2.41588,-0.66119 2.8179,-0.0113 0.39205,0.63435 2.16572,0.65702 4.12045,0.0526 1.88766,-0.58363 7.3696,-1.69115 12.1821,-2.46116 13.5194,-2.16311 14.16197,-2.36608 14.90529,-4.70804 0.3833,-1.20768 1.75697,-2.75324 3.0526,-3.43459 1.29562,-0.68136 4.07762,-2.21922 6.18221,-3.41747 3.72239,-2.11937 8.42394,-1.82252 7.02349,0.44346 -1.2947,2.09487 2.77976,2.48506 10.82853,1.03699 13.00784,-2.3403 21.4343,-3.73274 26.75788,-4.42165 2.75,-0.35588 6.125,-1.1187 7.5,-1.69517 1.375,-0.57646 7.50229,-1.65513 13.6162,-2.39703 6.50526,-0.7894 11.99028,-2.13995 13.22343,-3.25594 2.18592,-1.97824 6.28401,-2.61018 6.2872,-0.96951 10e-4,0.51562 6.32912,0.96503 14.0625,0.9987 21.47682,0.0935 39.68567,7.46048 39.68567,16.05617 0,3.13565 -6.43117,0.24371 -8.04444,-3.61737 -1.60733,-3.84688 -2.36912,-4.375 -6.31076,-4.375 -4.10381,0 -4.36901,0.21252 -3.13724,2.51413 0.74005,1.38279 1.21207,3.21092 1.04893,4.0625 -0.16314,0.85161 0.15272,2.87672 0.70192,4.50025 1.60434,4.74279 -1.75143,6.98293 -10.85188,7.24414 -13.49387,0.38733 -15.92103,1.86026 -8.94613,5.42898 2.01553,1.03125 3.88539,2.00203 4.15523,2.15728 0.26985,0.15527 -0.24069,1.16348 -1.13453,2.24049 -2.30409,2.77625 0.0204,4.68965 5.89023,4.84855 4.62211,0.12511 4.7423,0.2449 4.34287,4.32811 -0.30119,3.0789 0.0324,4.03782 1.25,3.59375 0.91344,-0.33312 1.52018,-1.2385 1.3483,-2.01193 -0.42415,-1.90867 0.46834,-1.77129 4.14549,0.63807 3.84927,2.52214 4.77284,1.74044 3.70231,-3.13361 -0.56639,-2.57873 -1.39301,-3.55108 -2.61895,-3.08065 -0.98524,0.37807 -1.79135,0.11412 -1.79135,-0.58645 0,-0.70063 2.39063,-1.6679 5.3125,-2.14949 2.92188,-0.4816 6.15315,-1.33349 7.18061,-1.8931 1.1795,-0.64241 3.61574,-0.0353 6.6092,1.64718 4.22784,2.37619 5.1758,2.48739 8.75689,1.0272 8.72023,-3.55565 16.07754,-4.35722 26.30768,-2.86615 5.44465,0.79356 10.34226,1.16912 10.88357,0.83457 0.54131,-0.33455 11.01703,-0.89297 23.27938,-1.24093 12.26235,-0.34797 29.32642,-0.92163 37.92017,-1.27479 8.59375,-0.35318 18.15625,-0.0869 21.25,0.59171 6.90344,1.51429 31.0931,4.61575 48.75,6.25045 7.21875,0.66833 21.84375,0.95061 32.5,0.62733 10.65625,-0.3233 33.3714,-0.55638 50.4781,-0.51795 48.0726,0.108 69.9463,-2.56564 73.3729,-8.96838 2.4705,-4.61605 -0.8007,-6.51405 -6.1881,-3.59051 -8.7086,4.72581 -57.1643,7.52622 -84.0492,4.85749 -7.8313,-0.7768 -19.01995,-1.57977 -24.8637,-1.78379 -11.19761,-0.39095 -24.38428,-1.26789 -36.875,-2.45229 -16.66481,-1.58019 -21.70358,-1.95524 -31.875,-2.37253 -5.84375,-0.23973 -15.125,-1.15722 -20.625,-2.03884 -14.7234,-2.36009 -50.88314,-1.96707 -66.875,0.72687 -7.21875,1.21605 -16.96439,2.41964 -21.65697,2.67465 -4.69259,0.25501 -10.57474,1.31716 -13.07143,2.36035 -7.01622,2.93156 -13.95976,-0.35592 -14.00246,-6.6296 -0.0244,-3.5854 3.17251,-3.69144 5.05831,-0.16779 1.59671,2.9835 2.6365,2.95609 28.04755,-0.73946 32.02784,-4.65782 64.33621,-7.14506 71.72875,-5.52199 2.3258,0.51065 5.56018,0.42224 7.1875,-0.19646 1.84643,-0.70201 4.24809,-0.63471 6.38834,0.179 2.89002,1.09879 30.37305,2.92955 38.44541,2.56101 1.375,-0.0628 4.1875,0.42034 6.25,1.07358 2.0625,0.65324 8.8125,1.4499 15,1.77037 11.16486,0.57826 11.20805,0.56914 5.70648,-1.20657 -3.04894,-0.98409 -5.97864,-2.49329 -6.51045,-3.35377 -1.38318,-2.23805 0.94838,-4.16538 2.98961,-2.47132 4.49197,3.72801 26.55176,6.32962 61.56436,7.26059 13.75,0.3656 28.6563,0.79437 33.125,0.95283 22.5174,0.79847 36.25,-1.72897 36.25,-6.67167 0,-3.9455 -8.099,-6.13619 -12.9962,-3.51531 -1.825,0.97673 -2.6391,0.95368 -2.9851,-0.0845 -0.3094,-0.92807 -2.1721,-1.15622 -5.3244,-0.65214 -2.6667,0.42642 -5.8545,0.3597 -7.0839,-0.14826 -1.2295,-0.50797 -10.6729,-0.85932 -20.9854,-0.78078 -10.3125,0.0785 -24.6562,-0.42942 -31.875,-1.1288 -26.4507,-2.56264 -76.29212,-3.68042 -108.75,-2.43892 -47.29605,1.80904 -56.15251,2.51854 -64.08781,5.13407 -12.66231,4.17362 -31.1856,4.77433 -24.06906,0.78056 5.37677,-3.01741 30.75792,-7.01277 48.6995,-7.66601 14.07591,-0.51248 18.0961,-1.677 16.22745,-4.70053 -0.31073,-0.50277 2.67951,-0.70198 6.64497,-0.44269 3.96548,0.25929 17.89745,0.80245 30.95995,1.20701 13.0625,0.40458 24.59375,1.04161 25.625,1.41565 1.82271,0.6611 35.52765,2.17819 80,3.60086 24.1424,0.77232 25.6229,-0.66935 3.0799,-2.99892 -7.5377,-0.77894 -16.2361,-1.942 -19.3299,-2.58459 -3.0937,-0.6426 -9.84375,-1.78665 -15,-2.54236 -5.15625,-0.7557 -12.1875,-1.92998 -15.625,-2.6095 -24.6295,-4.86871 -97.80856,-6.87491 -114.375,-3.13559 -5.15625,1.16386 -12.46875,2.41258 -16.25,2.77493 C 829.63612,541.10709 828.80131,545 845.07378,545 c 6.14692,0 11.17622,0.52117 11.17622,1.15816 0,1.40789 -20.52429,2.33908 -25.26549,1.14629 -3.61924,-0.91053 -15.01664,1.58617 -17.80503,3.90034 -1.59163,1.32092 -12.37908,3.47442 -21.92948,4.37776 -2.40625,0.2276 -4.79688,0.47089 -5.3125,0.54064 -0.51563,0.0697 -0.9375,0.97056 -0.9375,2.00181 0,1.03125 -0.79775,1.875 -1.77276,1.875 -0.97503,0 -2.66253,0.34143 -3.75,0.75874 -1.29749,0.49788 -1.97724,0.0681 -1.97724,-1.25 0,-1.10482 0.47221,-2.00874 1.04935,-2.00874 1.38553,0 3.95065,-5.7195 3.95065,-8.80881 0,-2.8655 3.1565,-3.29082 4.20204,-0.56619 0.98575,2.56884 3.71227,2.29639 13.92296,-1.39127 4.8125,-1.73808 12.6875,-3.92615 17.5,-4.86239 11.17165,-2.17339 18.85887,-3.93094 24.36675,-5.57104 2.40171,-0.71516 5.88414,-1.3003 7.73872,-1.3003 1.85459,0 3.70832,-0.5442 4.1194,-1.20934 0.47495,-0.7685 -5.30781,-0.96542 -15.86373,-0.54022 -19.9566,0.80388 -28.68392,0.95457 -30.36114,0.52423 -5.30053,-1.36001 -14.65665,0.15738 -15.26281,2.47533 -0.83559,3.1953 -3.10558,3.18415 -6.01392,-0.0295 -3.27029,-3.61362 -1.36728,-4.77081 9.42899,-5.73359 8.32935,-0.74277 9.75628,-1.26237 13.09774,-4.76941 3.15097,-3.30711 5.24758,-4.17262 13.125,-5.4182 5.15625,-0.81531 12.75,-2.11968 16.875,-2.89857 14.3803,-2.71538 24.5428,-2.46954 84.375,2.04115 17.02724,1.28367 39.70069,5.78703 54.375,10.79988 2.0625,0.70458 7.03706,1.78153 11.05457,2.39324 4.01752,0.61171 7.80817,1.42344 8.42367,1.80384 0.61548,0.3804 3.13006,-0.26267 5.58796,-1.42902 3.7758,-1.79171 5.4745,-1.90575 10.9514,-0.7352 3.5653,0.76199 8.4511,1.34995 10.8574,1.30658 2.4063,-0.0434 9.7188,0.55095 16.25,1.32072 17.8602,2.10499 41.25,-0.0814 41.25,-3.8558 0,-1.69928 -11.3769,-3.25393 -15.9828,-2.18403 -7.2943,1.69435 -14.7764,1.36047 -16.5172,-0.73705 -1.2545,-1.51163 -1.2236,-1.87873 0.1595,-1.8942 47.4574,-0.53105 51.6874,-0.99485 53.2638,-5.84018 2.0258,-6.22651 -8.8706,-8.88859 -22.2566,-5.4375 -8.6427,2.22818 -13.1371,2.69244 -21.3682,2.20723 -41.7318,-2.45998 -56.8465,-1.9443 -55.3754,1.88927 0.8268,2.15453 1.8399,2.47239 15.253,4.78569 6.9574,1.19991 8.7533,1.91985 7.7636,3.11234 -1.3731,1.65451 -3.2037,1.55465 -24.3147,-1.32649 -6.875,-0.93828 -14.06659,-1.39253 -15.9813,-1.00946 -2.18525,0.43718 -4.27939,-0.004 -5.625,-1.18475 -2.99961,-2.63238 -5.64852,-3.27793 -19.09745,-4.65414 -16.59175,-1.69783 -29.12436,-3.54121 -39.29625,-5.77999 -5.19071,-1.14245 -13.58046,-1.82195 -20.625,-1.67045 -16.0381,0.34491 -39.094,-0.13744 -40.23356,-0.84172 -4.64133,-2.8685 5.22577,-5.98199 19.5419,-6.16629 16.97421,-0.21854 17.65065,-0.27204 16.60885,-1.31384 -0.79317,-0.79316 -51.54695,-2.30665 -63.69473,-1.8994 -3.9339,0.13189 -9.5589,1.33199 -12.5,2.66689 -2.9411,1.3349 -7.80212,2.43944 -10.80227,2.45454 -3.00014,0.0151 -7.50014,1.07567 -10,2.35682 -7.95613,4.07742 -15.17019,6.01319 -15.17019,4.07063 0,-2.07298 20.17339,-11.40004 24.657,-11.40004 2.39643,0 7.74222,-0.87716 11.87955,-1.94925 7.92332,-2.05314 86.32356,-2.00786 91.26878,0.0528 3.93405,1.63925 0.92958,3.14654 -6.27195,3.14654 -6.06849,0 -6.81002,0.24486 -5.23874,1.7299 3.23996,3.06212 28.04412,3.57261 30.7054,0.63193 2.07541,-2.29333 1.89605,-2.36187 -6.1813,-2.36187 -4.71249,0 -8.31874,-0.54189 -8.31874,-1.25 0,-0.6875 2.39062,-1.28521 5.3125,-1.32824 55.68035,-0.82001 89.3518,-2.542 96.6218,-4.94134 2.2137,-0.73057 5.9184,-1.22576 8.2328,-1.1004 2.3143,0.12535 6.4579,-0.68795 9.2079,-1.80733 2.75,-1.11939 8.3915,-2.22182 12.5367,-2.44984 4.1452,-0.22803 9.4167,-1.35243 11.7143,-2.49866 2.2977,-1.14623 4.6072,-1.81858 5.1322,-1.49409 1.9765,1.2215 20.6188,-6.45293 25.3043,-10.41691 3.5861,-3.03394 2.5827,-5.88819 -5.4356,-15.46169 -4.1926,-5.00588 -8.4258,-10.65408 -9.4071,-12.55155 -0.9812,-1.89747 -2.1947,-3.44995 -2.6968,-3.44995 -0.502,0 -1.6094,-1.54688 -2.4609,-3.4375 -0.8515,-1.89063 -3.52,-4.7083 -5.9301,-6.26149 -2.4101,-1.5532 -4.382,-3.68631 -4.382,-4.74026 0,-1.05395 -0.584,-2.59565 -1.2979,-3.42601 -0.7138,-0.83035 -3.2451,-3.68982 -5.625,-6.35435 -2.3799,-2.66454 -4.3271,-5.42593 -4.3271,-6.13642 0,-0.7105 -2.1645,-4.15872 -4.8101,-7.66272 -2.6455,-3.50401 -5.7464,-8.05513 -6.8909,-10.11359 -2.7892,-5.01684 -4.7393,-8.11867 -7.3615,-11.70939 -1.2031,-1.64747 -2.1875,-4.05779 -2.1875,-5.35626 0,-2.41567 -15.916,-33.98002 -20.1857,-40.03192 -1.3018,-1.8452 -3.1329,-5.50145 -4.0692,-8.125 -0.9363,-2.62355 -4.6441,-9.83259 -8.23968,-16.02009 C 987.95632,297.94229 980,282.63914 980,280.70516 c 0,-0.92824 -0.73782,-1.97082 -1.63963,-2.31687 -0.90178,-0.34605 -3.46828,-4.34373 -5.70332,-8.88374 -2.23504,-4.54 -4.55853,-8.25455 -5.16329,-8.25455 -0.60477,0 -2.3759,-4.07813 -3.93584,-9.0625 -1.55992,-4.98438 -4.31998,-11.03125 -6.13346,-13.4375 -3.3838,-4.48986 -21.16441,-39.63313 -21.18709,-41.87613 -0.008,-0.68687 -4.55918,-9.68637 -10.1161,-19.99887 -5.55691,-10.3125 -10.30745,-19.77211 -10.55675,-21.02135 -0.2493,-1.24925 -2.09918,-4.9463 -4.11086,-8.21569 -2.96914,-4.82545 -5.25929,-10.84376 -5.76046,-15.13796 -0.0401,-0.34375 -1.58056,-3.71875 -3.4232,-7.5 -7.74299,-15.88926 -19.2591,-46.092685 -21.83843,-57.275844 -4.83596,-20.967216 -17.93818,-40.899646 -31.7686,-48.329602 -3.69185,-1.983332 -33.48383,-4.617172 -48.93295,-4.32605 -5.69526,0.107325 -14.30835,-0.406958 -19.14018,-1.14284 -4.83184,-0.735884 -11.86309,-1.306768 -15.625,-1.268633 -3.76191,0.03814 -17.52734,-1.081608 -30.58984,-2.48832 C 721.3125,8.7619988 707.53125,7.3488924 703.75,7.0284744 699.96875,6.7080564 690.6875,5.7745461 683.125,4.9540072 666.59653,3.1606507 614.26026,3.9699771 610.31785,6.079895 c -1.42711,0.7637671 -5.31682,1.6098895 -8.6438,1.8802719 -6.54604,0.5319945 -25.38799,7.3457621 -34.71969,12.5555991 -3.18618,1.778829 -6.60002,3.234234 -7.5863,3.234234 -0.98626,0 -3.03666,1.68184 -4.55641,3.737424 -1.51976,2.055582 -3.90099,4.098545 -5.29162,4.539915 -3.01818,0.95793 -5.77003,3.52538 -5.77003,5.383375 0,0.736607 -0.5625,1.339286 -1.25,1.339286 -3.13397,0 1.60005,11.438555 10.6053,25.625 2.18205,3.4375 4.9424,9.429666 6.13412,13.315926 1.19173,3.886259 3.89092,9.784598 5.99818,13.107419 2.10727,3.322821 4.62416,8.288424 5.5931,11.034675 0.96894,2.74624 3.67924,7.81665 6.0229,11.26758 2.34366,3.45092 5.23286,8.80565 6.42045,11.8994 1.18759,3.09375 3.18675,6.96649 4.4426,8.60607 1.25584,1.63959 2.28335,3.92378 2.28335,5.07598 0,1.8622 15.41959,33.49102 21.0573,43.19295 1.1985,2.0625 4.36474,9.09375 7.03609,15.625 2.67136,6.53125 5.87856,13.5625 7.12714,15.625 1.24857,2.0625 2.27223,4.60657 2.2748,5.6535 0.003,1.04694 1.97342,4.8929 4.37967,8.54661 2.40625,3.6537 4.375,7.36888 4.375,8.25594 0,0.88706 0.80759,2.28307 1.79465,3.10226 0.98706,0.81919 2.182,3.27869 2.65542,5.46556 0.47343,2.18687 1.83734,5.38238 3.03092,7.10113 3.07531,4.42842 10.01901,19.00916 10.01901,21.03842 0,0.93537 1.1296,3.28702 2.51021,5.22592 1.38061,1.9389 2.88239,5.38616 3.33728,7.66057 0.45487,2.27443 1.85653,5.24034 3.11478,6.5909 1.25825,1.35058 2.28773,3.47453 2.28773,4.71989 0,1.24536 0.57642,2.2643 1.28094,2.2643 0.70451,0 1.77545,1.26562 2.37985,2.8125 2.03518,5.20872 6.42438,14.02731 9.48782,19.0625 1.67311,2.75 3.60465,6.26744 4.2923,7.81653 0.68765,1.54908 2.3885,5.31509 3.77968,8.36892 1.39117,3.05381 2.52941,6.10557 2.52941,6.78169 0,0.67611 0.71971,1.9726 1.59936,2.88107 2.16818,2.23924 9.11137,18.11518 10.28376,23.51429 0.52102,2.39939 2.28743,6.1195 3.92535,8.26694 1.63793,2.14742 4.39378,7.4968 6.12412,11.88749 1.73033,4.39068 4.21811,10.23307 5.52838,12.98307 1.31029,2.75 4.09512,8.82708 6.18852,13.50462 2.0934,4.67754 4.65951,9.35794 5.70246,10.4009 2.7176,2.7176 7.72326,11.78458 8.59577,15.56994 0.40892,1.77401 3.00537,6.55526 5.76989,10.625 2.76454,4.06975 5.04055,8.52454 5.0578,9.89954 0.0172,1.375 1.98734,6.13014 4.37798,10.56696 4.33885,8.05258 5.28611,11.30804 3.29035,11.30804 -2.60469,0 -8.94374,-10.44579 -8.94374,-14.73793 0,-1.29913 -2.81121,-7.37393 -6.24715,-13.49957 -3.43592,-6.12563 -6.24842,-11.91924 -6.25,-12.8747 -0.001,-0.95545 -0.75655,-2.3617 -1.67772,-3.125 -0.92119,-0.76329 -2.68148,-4.2003 -3.91177,-7.6378 -1.23028,-3.4375 -4.11001,-8.70364 -6.39938,-11.70252 -2.28939,-2.99889 -4.83723,-7.49689 -5.66187,-9.99557 -1.34495,-4.07527 -3.88854,-9.24853 -10.22784,-20.80191 -3.15773,-5.75499 -12.12427,-25.53704 -12.12427,-26.7487 0,-0.59143 -1.95823,-4.93991 -4.35161,-9.66331 -2.3934,-4.72339 -4.36215,-9.01764 -4.375,-9.54278 -0.034,-1.3881 -6.40464,-14.37304 -10.26383,-20.92021 -1.8236,-3.09375 -5.98495,-11.8125 -9.24745,-19.375 -3.26251,-7.5625 -6.9624,-14.75629 -8.22197,-15.9862 C 656.03056,287.1589 655,285.56808 655,284.85364 c 0,-0.71443 -1.96875,-5.39217 -4.375,-10.39496 -2.40625,-5.00281 -4.375,-9.71513 -4.375,-10.47183 0,-0.75671 -1.41868,-3.46637 -3.15263,-6.02148 -1.73393,-2.55511 -3.98762,-7.51795 -5.00817,-11.02855 -1.02056,-3.51058 -4.37721,-9.7419 -7.45924,-13.84734 -3.08202,-4.10547 -5.6096,-8.47409 -5.61682,-9.70805 -0.008,-1.23398 -2.77728,-7.98398 -6.15567,-15 -3.37838,-7.01604 -6.84895,-15.28768 -7.71236,-18.38143 -0.86341,-3.09375 -2.46877,-6.75 -3.56745,-8.125 -4.94522,-6.18892 -7.48147,-10.62562 -8.73469,-15.27971 -0.7433,-2.7604 -2.3798,-6.35798 -3.63667,-7.9946 -2.76673,-3.60268 -4.45251,-6.85004 -18.09184,-34.85069 -5.86051,-12.03125 -11.05753,-23.28125 -11.54896,-25 -0.49141,-1.71875 -1.94469,-4.618084 -3.2295,-6.442962 C 561.0512,90.482157 560,88.60213 560,88.129199 c 0,-0.472931 -1.125,-2.290082 -2.5,-4.03811 -1.375,-1.74803 -2.5,-3.97934 -2.5,-4.958468 0,-5.250003 -14.88934,-30.88299 -16.82539,-28.966021 -1.15468,1.143306 3.90113,15.471509 7.36285,20.866375 1.62062,2.525614 3.93127,7.685775 5.13479,11.467025 1.20352,3.78125 2.95088,7.984535 3.88299,9.340633 0.93212,1.356098 1.69476,3.271753 1.69476,4.257011 0,0.985259 1.40625,3.635067 3.125,5.888466 1.71875,2.2534 3.125,4.47148 3.125,4.92908 0,1.58137 4.23973,9.97307 6.92659,13.70981 1.48301,2.0625 3.60093,6.09194 4.70648,8.9543 1.10557,2.86237 4.84664,10.15126 8.31352,16.19755 3.46687,6.04627 6.30341,12.09386 6.30341,13.43906 0,1.34519 2.16011,6.4313 4.80025,11.30245 4.80466,8.8648 8.66611,20.18195 7.33896,21.50909 -0.38816,0.38817 -2.73266,-3.70609 -5.20999,-9.09835 -2.47732,-5.39225 -5.34382,-10.43793 -6.37001,-11.21259 -1.02618,-0.77467 -2.71351,-4.71217 -3.74961,-8.75 -1.0361,-4.03784 -2.99211,-8.86561 -4.34671,-10.7284 -1.35459,-1.86279 -2.46289,-3.78724 -2.46289,-4.27657 0,-0.48933 -0.74936,-1.77773 -1.66525,-2.86312 -0.91589,-1.08538 -2.94655,-5.06717 -4.51259,-8.84842 -1.56602,-3.78125 -3.62916,-7.76304 -4.58474,-8.84842 -0.95558,-1.08539 -1.73742,-2.64344 -1.73742,-3.46235 0,-0.8189 -1.30234,-3.58711 -2.89408,-6.15157 -1.59173,-2.56446 -4.21898,-8.03766 -5.83832,-12.16266 -1.61935,-4.125 -3.94056,-8.947164 -5.15828,-10.715919 -1.2177,-1.768755 -3.61183,-6.929637 -5.32031,-11.468626 -1.70847,-4.538989 -4.2494,-10.404326 -5.64651,-13.034081 C 537.59235,63.253441 530,46.320015 530,44.997368 530,43.835001 521.40406,37.5 519.82686,37.5 c -0.46355,0 -0.54862,1.125 -0.18905,2.5 1.03401,3.95407 -1.55222,2.92609 -5.91785,-2.352233 C 501.55601,22.940776 430.96091,9.8474529 408.125,18.062998 c -2.75,0.989352 -9.5,2.118016 -15,2.508141 -5.5,0.390126 -13.65625,1.262001 -18.125,1.9375 -4.46875,0.675498 -11.78125,1.737933 -16.25,2.360967 -7.42561,1.035279 -14.46716,2.726806 -26.24175,6.303816 C 330.10654,31.90304 325.99144,32.5 323.36357,32.5 c -2.62786,0 -5.72532,0.504532 -6.88325,1.121184 -1.15792,0.616652 -7.09571,1.729639 -13.19507,2.473303 -6.09936,0.743667 -11.81406,1.953239 -12.69933,2.68794 -0.88526,0.7347 -7.98861,1.616518 -15.78523,1.959593 -7.79663,0.343075 -16.8473,1.452808 -20.11259,2.466072 -6.03659,1.87323 -75.34549,1.828249 -78.38596,-0.05087 -0.686,-0.423972 -6.46275,-0.771809 -12.83721,-0.772973 -6.37446,-0.0012 -13.83993,-0.578285 -16.58993,-1.282494 -17.31218,-4.433227 -21.126,-3.72206 -19.95047,3.72018 0.28695,1.816688 0.89731,5.834319 1.35636,8.928069 0.45905,3.09375 1.59615,6.734535 2.52687,8.090632 0.93073,1.356099 1.69224,3.566163 1.69224,4.911253 0,2.605695 0.7214,5.269939 4.99549,18.449074 1.48508,4.579276 2.91211,9.641776 3.17117,11.25 0.59953,3.721961 3.552,13.465161 6.75724,22.299041 1.37196,3.78125 2.51285,7.83791 2.53529,9.0148 0.0404,2.11372 3.08543,9.1022 15.13535,34.7352 3.39348,7.21875 6.16671,13.91565 6.16272,14.88201 -0.004,0.96635 1.53961,3.73633 3.43024,6.15548 1.89062,2.41916 4.5625,6.49585 5.9375,9.05931 1.375,2.56346 6.50033,10.49594 11.38963,17.62772 4.88928,7.13179 9.28254,14.20492 9.76279,15.71805 0.48025,1.51314 2.88289,5.15445 5.3392,8.09179 2.4563,2.93735 5.0699,6.74689 5.808,8.46564 0.73811,1.71875 2.86364,5.40423 4.72342,8.18995 1.85978,2.78571 5.04901,8.50749 7.08717,12.71504 2.03818,4.20755 4.82794,9.24082 6.19948,11.18506 1.37153,1.94423 4.022,6.90995 5.88991,11.03495 1.8679,4.125 4.67296,9.1875 6.23345,11.25 1.5605,2.0625 4.39879,6.84375 6.30732,10.625 1.90854,3.78125 4.80085,8.46504 6.42735,10.40841 1.6265,1.94337 2.95728,4.03608 2.95728,4.65045 0,1.04932 2.65406,7.18335 9.43936,21.81614 1.59399,3.4375 3.27694,7.79687 3.7399,9.6875 0.46298,1.89062 1.37424,3.4375 2.02504,3.4375 1.05466,0 3.11407,4.11575 9.38202,18.75 2.05933,4.80806 2.64264,5.91525 8.89049,16.875 2.35154,4.125 5.38914,10.3125 6.75021,13.75 2.06743,5.22141 10.79308,23.05706 23.23822,47.5 1.40016,2.75 5.9885,12.03125 10.19628,20.625 9.16709,18.72229 12.40449,24.65766 15.81263,28.9904 1.41271,1.79599 4.67724,8.52349 7.25448,14.95001 2.57725,6.42653 5.41755,13.37434 6.31178,15.4396 0.89423,2.06525 2.02416,5.7215 2.51095,8.125 1.1624,5.73929 3.93001,11.75846 6.31768,13.74004 2.16628,1.79786 28.6104,7.68194 30.97076,6.8913 0.84436,-0.28283 4.51451,-0.80595 8.1559,-1.16249 3.64139,-0.35655 7.02554,-0.89846 7.52034,-1.20426 0.49478,-0.3058 3.42172,-0.093 6.5043,0.47279 3.08256,0.56583 8.97966,0.63817 13.10466,0.16075 4.125,-0.47742 9.75,-0.38269 12.5,0.2105 2.99556,0.64616 9.50999,0.55098 16.25,-0.23739 10.86779,-1.27121 14.10776,-1.5808 34.375,-3.28461 5.15625,-0.43348 11.34375,-0.95904 13.75,-1.16793 2.40625,-0.20888 5.86941,-0.97456 7.69592,-1.7015 1.82652,-0.72692 6.88902,-1.68124 11.25,-2.12067 11.48185,-1.15699 56.94727,-10.3622 60.85678,-12.32145 4.38709,-2.19858 15.04714,-4.77044 16.37398,-3.9504 0.57663,0.35637 3.50091,-0.69102 6.49837,-2.32754 2.99748,-1.63653 8.5437,-3.66306 12.32495,-4.50344 3.78125,-0.84036 9.1438,-2.30886 11.91679,-3.26332 2.77298,-0.95447 6.02715,-1.73539 7.23148,-1.73539 1.20433,0 3.46952,-0.83858 5.03374,-1.8635 1.68968,-1.10711 6.11129,-1.92678 10.89353,-2.01939 4.4272,-0.0858 9.94629,-0.93467 12.26461,-1.8865 2.31834,-0.95184 6.36326,-1.73061 8.98874,-1.73061 2.62546,0 5.07431,-0.48663 5.4419,-1.08138 1.17047,-1.89386 15.9328,-4.26443 28.85421,-4.63347 6.875,-0.19635 13.50172,-0.74518 14.72607,-1.21961 1.22434,-0.47444 3.81258,-0.54531 5.75164,-0.1575 9.59375,1.91875 11.63649,-4.41859 4.71288,-14.62113 -1.78721,-2.6336 -3.61685,-6.84116 -4.06587,-9.35014 -0.44901,-2.50897 -1.4945,-5.40552 -2.3233,-6.43677 -0.82881,-1.03125 -2.78822,-4.96875 -4.35426,-8.75 -1.56602,-3.78125 -3.5128,-7.71875 -4.32615,-8.75 -1.36994,-1.73693 -3.23057,-5.45841 -4.99971,-10 -0.40171,-1.03125 -1.23375,-2.71875 -1.84896,-3.75 -2.122,-3.557 -11.10168,-23.14851 -14.60977,-31.875 -1.93463,-4.8125 -4.53453,-10.24309 -5.77755,-12.06796 C 701.01701,402.98216 700,401.0881 700,400.59802 c 0,-0.49007 -3.09375,-7.04559 -6.875,-14.56782 -3.78125,-7.52224 -6.875,-14.28027 -6.875,-15.01786 0,-0.7376 -2.53857,-6.32962 -5.64129,-12.42672 -3.1027,-6.09708 -5.05146,-11.08562 -4.33057,-11.08562 0.72089,0 2.44081,2.39062 3.82204,5.3125 1.38123,2.92187 4.45065,8.96875 6.82091,13.4375 2.37027,4.46875 4.31392,8.86111 4.31925,9.7608 0.005,0.89969 1.65824,3.71219 3.67315,6.25 2.01492,2.53781 5.16655,8.5517 7.00362,13.3642 4.7259,12.38027 6.96853,16.99066 10.23124,21.03341 1.56841,1.94336 2.85165,4.20959 2.85165,5.03605 0,1.97646 6.59315,17.56895 8.34669,19.73951 2.0515,2.53939 10.40331,20.2004 10.40331,21.99918 0,0.86176 0.49426,1.56685 1.09835,1.56685 0.60409,0 1.78586,1.82812 2.62615,4.0625 2.30616,6.13221 3.3077,8.53242 6.16293,14.76965 1.43691,3.13894 2.61257,6.1269 2.61257,6.63991 0,0.51302 1.32906,3.85104 2.95349,7.41785 1.62441,3.5668 3.66745,8.32782 4.54007,10.58003 1.85849,4.79663 7.66942,9.36873 10.51797,8.27564 2.58,-0.99004 2.50685,-2.30774 -0.43443,-7.82539 -6.02394,-11.30053 -9.18886,-19.82358 -8.04717,-21.67085 1.12041,-1.81288 4.10663,2.35369 6.74943,9.41722 1.41904,3.7927 3.96169,8.93177 5.65035,11.42014 1.68867,2.48837 3.07029,5.10486 3.07029,5.8144 0,0.74094 2.22144,1.12968 5.21876,0.91326 5.27757,-0.38105 8.19833,1.93252 4.31902,3.42114 -1.54184,0.59166 -1.6332,1.19625 -0.46377,3.06881 1.9763,3.16458 0.72755,4.03362 -3.49121,2.42964 -1.93266,-0.73479 -4.4013,-0.95781 -5.48586,-0.49561 -3.2028,1.36492 -9.24985,1.8674 -10.01413,0.83212 -1.44943,-1.96339 -10.00908,-4.1366 -13.16905,-3.3435 -3.98882,1.00114 -3.50898,3.50852 0.76965,4.02182 2.68078,0.3216 3.04007,0.8886 2.57423,4.0625 -0.5206,3.54706 -3.07893,4.95267 -4.58348,2.51826 -0.39786,-0.64375 -1.69668,-1.1643 -2.88627,-1.15677 -1.18959,0.008 -4.42151,-0.56394 -7.18205,-1.26993 -10.62985,-2.71851 -33.80021,-1.81518 -36.15745,1.40966 -0.87945,1.20312 -2.76941,2.1875 -4.19993,2.1875 -1.4305,0 -2.95325,0.57008 -3.38387,1.26684 -0.51943,0.84045 5.83579,1.15598 18.88195,0.9375 24.43137,-0.40917 29.78202,2.24886 6.51866,3.23825 -18.73246,0.7967 -16.97014,0.65967 -34.7652,2.70312 -8.59375,0.98685 -19,2.71262 -23.125,3.83504 -12.82131,3.48871 -21.00737,4.22415 -22.61077,2.03136 -1.60583,-2.1961 -15.51423,-3.83053 -15.51423,-1.82315 0,0.6867 -1.41517,1.24854 -3.14484,1.24854 -1.72967,0 -5.2453,1.41171 -7.8125,3.13714 -3.19587,2.14795 -7.13592,3.37411 -12.49555,3.88868 -4.30532,0.41337 -10.04542,1.88288 -12.75577,3.26559 -2.71035,1.38271 -8.9705,3.08738 -13.91144,3.78813 -11.17086,1.58431 -14.66186,2.4102 -18.64244,4.41037 -1.72565,0.86712 -7.91315,1.84813 -13.75,2.18003 -5.95498,0.33862 -15.82402,2.08052 -22.48746,3.96906 -14.03683,3.97827 -24.78884,6.022 -27.07214,5.14581 -0.90281,-0.34644 -4.88405,0.40401 -8.84717,1.66766 -8.73322,2.78463 -14.0639,3.48797 -39.08069,5.1564 -20.96101,1.39794 -32.92223,3.25918 -31.87145,4.95938 0.36422,0.58932 0.0905,1.42482 -0.60816,1.85665 -6.14664,3.79882 -0.31958,5.42666 13.72961,3.83546 z m 340.6171,-19.46065 c -0.77211,-1.2493 1.96069,-5.55714 4.86178,-7.66381 0.60712,-0.44088 1.03912,-3.67525 0.96,-7.1875 -0.14225,-6.31372 1.27841,-8.43609 2.81031,-4.1984 0.43492,1.20312 1.59307,3.56605 2.57367,5.25095 2.34382,4.02724 -8.77952,17.7245 -11.20576,13.79876 z m 27.43431,-8.08846 c -2.78461,-2.12454 -1.26974,-3.86008 4.44859,-5.09659 1.71875,-0.37165 5.25126,-1.30604 7.85004,-2.07641 3.391,-1.00522 5.10718,-1.01853 6.07858,-0.0471 1.71566,1.71565 0.32623,4.05829 -2.43989,4.11379 -1.16255,0.0234 -4.36373,1.12924 -7.11373,2.45759 -6.0914,2.94235 -5.84147,2.92398 -8.82359,0.64875 z M 796.25,518.87071 c 0,-1.66107 11.06851,-5.60706 24.375,-8.68983 7.99756,-1.85284 31.14125,-2.46752 31.5716,-0.83853 0.18486,0.69974 -4.06709,1.34944 -10,1.528 -13.10005,0.39429 -27.01487,2.61251 -30.59012,4.87651 -1.52269,0.96423 -4.15794,1.75314 -5.85613,1.75314 -1.69817,0 -4.53047,0.54858 -6.29397,1.21906 -1.76352,0.67049 -3.20638,0.73873 -3.20638,0.15165 z m -66.26524,-25.78577 c -0.77482,-2.03795 -2.14684,-4.55014 -3.04891,-5.58265 -0.90209,-1.03252 -2.06216,-3.28354 -2.57796,-5.00229 -1.05365,-3.51099 -12.41203,-26.9935 -18.13858,-37.5 -2.06096,-3.78125 -4.05336,-7.83822 -4.42757,-9.01549 -0.3742,-1.17727 -2.87185,-6.12734 -5.55033,-11.00014 -2.67848,-4.87281 -6.269,-12.34708 -7.97893,-16.60951 -5.28904,-13.18419 -8.50377,-20.172 -10.17848,-22.12486 -0.88437,-1.03125 -2.54945,-4.96875 -3.70018,-8.75 -1.15073,-3.78125 -3.82659,-10.47021 -5.94636,-14.86438 -2.11977,-4.39414 -3.85412,-8.75352 -3.85412,-9.6875 0,-0.93396 -0.46875,-1.69812 -1.04168,-1.69812 -0.57291,0 -1.04166,-0.56827 -1.04166,-1.26283 0,-0.69455 -1.82813,-3.93967 -4.0625,-7.2114 -8.1421,-11.92222 -10.43248,-17.82997 -6.875,-17.73332 1.55611,0.0423 23.95195,44.00887 25.44753,49.95755 0.43212,1.71875 1.49735,3.96875 2.36718,5 2.50635,2.97147 6.99153,12.42815 6.68849,14.10223 -0.27016,1.49258 2.66476,8.44029 5.13161,12.14777 0.68616,1.03125 1.82061,4.17821 2.521,6.99326 0.70039,2.81504 2.95256,7.59629 5.00481,10.625 2.05227,3.0287 3.74162,6.01101 3.75413,6.62735 0.0125,0.61635 2.00762,4.11096 4.43359,7.76583 2.42595,3.65486 6.10136,10.74432 8.16757,15.75437 5.29169,12.83103 15.02823,32.23419 16.17517,32.23419 1.37107,0 2.24238,7.13849 1.09743,8.99106 -0.64692,1.04675 -1.4144,0.34743 -2.36625,-2.15612 z M 667.20568,333.4375 c -1.06592,-2.23438 -5.09199,-10.5478 -8.94684,-18.47429 -7.55667,-15.53823 -9.66298,-24.12048 -3.05881,-12.46321 2.14218,3.78125 6.09826,10.47254 8.79128,14.86952 4.28779,7.0008 8.43587,16.37764 8.4905,19.19298 0.0501,2.5842 -3.5776,0.43554 -5.27613,-3.125 z m -26.34917,-22.85491 c -1.15857,-2.42958 -2.10651,-5.57139 -2.10651,-6.98183 0,-1.41042 -1.96875,-6.56071 -4.375,-11.44506 -2.40625,-4.88436 -4.375,-9.54866 -4.375,-10.36513 0,-0.81645 -0.84375,-2.18471 -1.875,-3.04057 -1.03125,-0.85586 -1.875,-2.53638 -1.875,-3.73449 0,-1.1981 -1.04496,-3.51985 -2.32214,-5.15944 -3.71814,-4.7732 -12.6393,-21.97797 -11.82067,-22.79658 0.41083,-0.41084 -0.42278,-1.74542 -1.85247,-2.96574 -1.42968,-1.22031 -4.40633,-6.71875 -6.61478,-12.21875 -2.20845,-5.5 -5.09201,-10.96315 -6.4079,-12.14035 -1.31589,-1.17719 -2.57154,-3.42719 -2.79034,-5 -0.21879,-1.5728 -1.13048,-4.8284 -2.02598,-7.23465 -0.89548,-2.40625 -1.47607,-4.59336 -1.29018,-4.86025 0.1859,-0.26688 -0.14985,-0.82938 -0.74612,-1.25 -2.68267,-1.89244 -9.12942,-12.13939 -9.12942,-14.511 0,-1.44581 -0.49928,-3.16313 -1.10951,-3.81625 -1.8694,-2.00081 -2.92208,-6.8125 -1.4904,-6.8125 1.87879,0 6.75576,8.15837 9.86365,16.50029 3.39161,9.10346 17.3977,37.08972 19.72851,39.42053 2.46753,2.46752 3.77676,5.27429 4.67773,10.02812 0.42464,2.24067 1.94603,5.66177 3.38083,7.60245 1.43482,1.94068 2.72763,4.3385 2.87293,5.3285 0.1453,0.98999 1.7969,3.80949 3.67022,6.26553 1.87331,2.45606 3.40604,5.17075 3.40604,6.03266 0,0.86191 2.64916,6.99631 5.88701,13.63201 5.47852,11.22772 10.79789,24.52682 12.45033,31.12741 1.09568,4.37666 -1.38789,3.30829 -3.73083,-1.60491 z m 3.82899,-22.85805 c -1.88953,-4.0015 -3.4355,-8.13307 -3.4355,-9.18127 0,-1.04818 -1.10383,-2.90474 -2.45294,-4.12568 -1.34912,-1.22094 -3.09735,-4.26124 -3.88495,-6.75624 -0.7876,-2.49499 -3.54285,-8.47385 -6.12276,-13.28635 -2.57991,-4.8125 -5.69763,-11.82201 -6.92826,-15.5767 -1.23063,-3.75469 -3.87729,-9.60776 -5.88145,-13.00684 C 609.6678,215.08657 603.75,202.65712 603.75,200.10497 c 0,-1.35158 -0.5625,-2.80507 -1.25,-3.22997 -1.46239,-0.90381 -1.67962,-3.125 -0.30562,-3.125 1.37331,0 9.05562,14.59759 9.05562,17.20709 0,1.21691 1.40625,4.28206 3.125,6.81142 1.71875,2.52938 3.125,5.1912 3.125,5.91518 0,0.72397 0.5716,1.31631 1.27022,1.31631 1.31567,0 2.34181,2.10831 8.21322,16.875 1.9135,4.8125 4.73391,10.4375 6.26756,12.5 1.53365,2.0625 3.17974,6 3.65797,8.75 0.47824,2.75 1.50999,5.56974 2.29278,6.26607 3.1273,2.78193 9.91279,15.90154 11.4671,22.17143 1.57135,6.33857 -2.3725,3.80884 -5.98335,-3.83796 z M 565.76425,156.55781 c -5.39123,-13.54872 -9.90354,-23.54701 -11.42164,-25.30781 -0.88911,-1.03125 -2.55806,-4.96875 -3.70879,-8.75 -1.15073,-3.78125 -3.8266,-10.47022 -5.94636,-14.86437 -2.11977,-4.39415 -3.85412,-8.75353 -3.85412,-9.687501 0,-0.933971 -0.46875,-1.698129 -1.04168,-1.698129 -0.57291,0 -1.04166,-0.568269 -1.04166,-1.26282 0,-0.69455 -1.82813,-3.939685 -4.0625,-7.211409 -8.1421,-11.922217 -10.43247,-17.829975 -6.875,-17.733317 1.55611,0.04227 23.95195,44.008866 25.44753,49.957546 0.43212,1.71875 1.49735,3.96875 2.36718,5 2.47465,2.93389 6.99085,12.41416 6.718,14.10222 -0.31335,1.93862 2.33626,8.4436 4.43795,10.89549 0.88504,1.03251 2.19233,4.26791 2.90509,7.18979 1.82539,7.48295 -0.86784,7.05078 -3.924,-0.62969 z M 635,592.17079 c 3.78125,-1.03476 12.21875,-2.81916 18.75,-3.96534 6.53125,-1.14618 14.54666,-2.67359 17.81201,-3.39426 3.26536,-0.72067 8.32786,-1.46439 11.25,-1.6527 2.92215,-0.18833 7.56299,-0.9626 10.31299,-1.72063 2.75,-0.75802 6.88217,-1.39164 9.18261,-1.40804 5.0836,-0.0362 17.69239,-3.56898 17.69239,-4.95706 0,-2.15016 -14.3855,-2.67867 -19.90495,-0.7313 -2.97515,1.0497 -7.97059,1.90854 -11.10096,1.90854 -3.13038,0 -7.41903,0.52539 -9.53034,1.16751 -7.50313,2.282 -18.9539,5.31158 -26.93094,7.12521 -4.4507,1.0119 -8.3882,2.27284 -8.75,2.80209 -0.3618,0.52925 -3.46532,1.09486 -6.89674,1.25693 -6.79191,0.32077 -17.71556,3.4566 -18.93946,5.4369 -0.99056,1.60276 7.94906,0.62361 17.05339,-1.86785 z m -84.375,-2.22556 c 4.125,-0.65309 11.4375,-1.08105 16.25,-0.95103 8.71774,0.23555 17.81091,-1.5219 19.24536,-3.71956 0.41505,-0.63588 3.79573,-1.55135 7.51261,-2.03438 3.71689,-0.48302 8.32958,-1.69094 10.25043,-2.68425 1.92085,-0.9933 4.78601,-1.80647 6.36702,-1.80702 4.48767,-0.001 15.37458,-4.55909 15.37458,-6.43613 0,-0.92832 -0.65699,-1.56261 -1.45996,-1.40954 -3.48243,0.66388 -13.89655,1.90972 -17.91504,2.14317 -6.54814,0.38042 -21.92032,3.08318 -32.5,5.7142 -5.15625,1.2823 -13.03125,3.02983 -17.5,3.88345 -4.46875,0.8536 -11.09416,2.85786 -14.72314,4.45392 -3.62899,1.59606 -7.56648,2.91055 -8.75,2.92108 -1.18352,0.01 -2.99561,0.58965 -4.02686,1.28693 -2.06894,1.39894 8.65909,0.73154 21.875,-1.36085 z m 243.50963,0.59904 c 1.09621,-0.42066 1.58355,-1.68298 1.20645,-3.125 -0.74222,-2.83824 -4.09108,-3.28377 -4.09108,-0.54427 0,1.03125 -0.5625,1.875 -1.25,1.875 -0.6875,0 -1.25,0.5625 -1.25,1.25 0,1.38021 2.53774,1.63672 5.38462,0.54427 z m 30.87362,-0.56258 c 2.40171,-0.69756 8.65239,-1.56159 13.89038,-1.92005 20.04168,-1.37155 22.62735,-2.0813 20.44521,-5.61205 -0.71491,-1.15677 -5.8825,-1.28596 -21.70358,-0.54264 -11.4209,0.53659 -24.86457,0.86944 -29.87485,0.73966 -10.48508,-0.27157 -12.05147,0.27893 -10.0253,3.52335 1.22299,1.95833 2.5558,2.20279 8.88205,1.62915 6.08522,-0.55179 7.65377,-0.29856 8.5976,1.38798 1.33309,2.3821 3.66973,2.57178 9.78849,0.7946 z m 225.51455,0.50957 c 4.6838,-1.79734 1.2321,-2.99126 -8.6478,-2.99126 -11.2875,0 -14.6715,2.04395 -4.6875,2.8312 3.2656,0.2575 7.1571,0.56957 8.6478,0.69349 1.4906,0.12387 3.6,-0.11613 4.6875,-0.53343 z m -126.18684,-1.6781 c 0.40344,-0.65276 -1.3915,-1.5096 -3.98872,-1.90407 -2.59723,-0.39448 -7.53474,-1.3097 -10.97224,-2.03384 -12.09344,-2.54757 -46.875,-3.056 -46.875,-0.68519 0,1.13297 0.42188,2.09497 0.9375,2.13778 0.51563,0.0427 8.8125,0.33046 18.4375,0.63925 9.625,0.30877 21.4375,1.03765 26.25,1.6197 12.58899,1.52258 15.38573,1.56163 16.21096,0.22637 z M 421.875,581.37477 c 4.125,-0.68731 15.65625,-1.86612 25.625,-2.61957 35.64656,-2.69422 51.28509,-8.55739 18.31992,-6.86846 -20.98146,1.07495 -71.01635,1.11612 -74.3402,0.0611 -3.11686,-0.98925 -3.72412,-4.44791 -0.78095,-4.44791 1.07183,0 1.60113,-0.5625 1.17623,-1.25 -0.4249,-0.6875 -2.1124,-1.25 -3.75,-1.25 -1.6376,0 -3.35784,-0.61548 -3.82275,-1.36771 -0.46491,-0.75224 -2.30794,-1.08812 -4.09561,-0.74638 -8.00713,1.53066 -18.98847,-7.49432 -19.81624,-16.28592 -0.39824,-4.22973 -2.03945,-8.95338 -7.28768,-20.97499 -0.90041,-2.0625 -2.27241,-5.8008 -3.0489,-8.30733 -0.77648,-2.50653 -3.63056,-7.72475 -6.3424,-11.59602 -2.71183,-3.87128 -5.30082,-8.57048 -5.75331,-10.44268 -0.45247,-1.87218 -1.77892,-4.81022 -2.94767,-6.52897 -2.99449,-4.40369 -9.3259,-16.87891 -12.68795,-25 -1.5654,-3.78125 -5.28398,-10.53125 -8.2635,-15 -2.97954,-4.46875 -5.76685,-9.53125 -6.19405,-11.25 -0.42719,-1.71875 -3.98039,-9.03125 -7.89598,-16.25 -3.9156,-7.21875 -8.10051,-15.375 -9.29981,-18.125 -1.1993,-2.75 -4.93424,-10.70201 -8.29985,-17.67114 -3.36561,-6.96907 -6.1193,-13.01261 -6.1193,-13.43001 0,-0.41741 -2.60611,-6.24665 -5.79138,-12.95386 -3.18525,-6.70722 -8.06301,-16.97619 -10.83947,-22.81994 -2.77646,-5.84375 -8.79406,-17.09375 -13.37244,-25 -4.57839,-7.90625 -10.41437,-18.47476 -12.96886,-23.48557 -2.55449,-5.01083 -6.86828,-12.55117 -9.58619,-16.7563 -2.71791,-4.20516 -4.94166,-8.27447 -4.94166,-9.04293 0,-0.76846 -1.96875,-4.3866 -4.375,-8.04031 -2.40625,-3.6537 -4.375,-7.08545 -4.375,-7.6261 0,-0.54067 -3.09375,-5.52594 -6.875,-11.07839 -3.78125,-5.55246 -6.875,-10.72478 -6.875,-11.49404 0,-0.76926 -3.24761,-6.00051 -7.21693,-11.62501 C 178.4911,197.16342 174.668,190.82089 167.79966,176.875 164.41372,170 159.99061,161.28125 157.97051,157.5 c -2.0201,-3.78125 -4.65389,-9.125 -5.85286,-11.875 -1.19898,-2.75 -3.2639,-6.96875 -4.5887,-9.375 -1.3248,-2.40625 -2.76067,-6.34375 -3.19084,-8.75 -0.43016,-2.40625 -1.5447,-6.0625 -2.47677,-8.125 -0.93206,-2.0625 -2.33018,-6.5625 -3.10693,-10 -2.29831,-10.171233 -3.97184,-16.00521 -5.79135,-20.188911 -0.94219,-2.166401 -1.71306,-4.836036 -1.71306,-5.932523 0,-1.096486 -1.20549,-5.47698 -2.67888,-9.734429 -1.47337,-4.257448 -2.86205,-9.744063 -3.08593,-12.192477 -1.52282,-16.653029 -3.10078,-19.526914 -7.24708,-13.198859 -1.80253,2.751009 -1.83646,3.541564 -0.28167,6.5625 3.04421,5.914824 4.42401,12.42925 2.94572,13.907538 -0.94232,0.942316 -1.72583,0.555492 -2.67945,-1.322857 C 116.20731,63.305235 112.91533,61.584669 111,63.5 c -1.23273,1.232731 -1.24483,2.030056 -0.0565,3.721905 0.83179,1.184202 2.66133,4.54372 4.06565,7.465595 3.09238,6.434081 6.58319,7.336794 5.39485,1.395089 -0.60729,-3.03648 -0.38945,-3.781042 0.96875,-3.310989 0.96373,0.333532 1.66049,1.955742 1.54837,3.604911 -0.11214,1.649169 0.81683,6.092239 2.06436,9.873489 3.89039,11.791718 6.57808,24.89414 5.57665,27.18605 -1.73688,3.97507 2.80685,12.81395 6.58715,12.81395 0.92354,0 2.00362,0.98438 2.40017,2.1875 1.64402,4.98779 5.45902,12.6702 6.66068,13.41287 0.70941,0.43844 1.28985,1.8201 1.28985,3.07034 0,1.25025 0.85734,2.98471 1.90521,3.85437 1.04786,0.86964 1.66054,1.82584 1.36149,2.12488 -0.29904,0.29904 1.93738,5.36599 4.9698,11.25989 3.03243,5.8939 5.5135,11.75657 5.5135,13.02816 0,1.27159 0.5625,2.31199 1.25,2.31199 0.6875,0 1.25,0.76926 1.25,1.70947 0,0.94022 2.60645,5.58084 5.79213,10.3125 3.18566,4.73167 7.66266,12.63374 9.94888,17.56018 2.28623,4.92642 4.73328,9.31342 5.43788,9.7489 0.7046,0.43546 3.20104,4.61737 5.54762,9.29312 5.26312,10.48709 13.88012,26.50507 17.10565,31.79734 1.32527,2.17442 4.70974,8.59411 7.52107,14.26599 2.81131,5.67187 5.54035,10.3125 6.06451,10.3125 0.52417,0 1.87237,2.10937 2.99602,4.6875 1.12364,2.57812 4.20403,8.625 6.84529,13.4375 2.64127,4.8125 5.88474,11.84375 7.2077,15.625 1.32296,3.78125 3.02032,7.4375 3.77191,8.125 0.7516,0.6875 2.60893,4.23316 4.1274,7.87924 1.51848,3.64608 5.17744,11.23983 8.13103,16.875 2.9536,5.63517 5.70218,11.93326 6.10798,13.99576 0.4058,2.0625 3.74043,8.29959 7.4103,13.86019 3.66987,5.56061 7.68224,12.59186 8.91638,15.625 1.23414,3.03315 4.12097,9.45231 6.4152,14.26481 2.29421,4.8125 4.57123,10.15625 5.06003,11.875 0.4888,1.71875 1.5904,3.96875 2.44798,5 0.8576,1.03125 1.93249,3.44462 2.38865,5.36305 0.77788,3.27139 5.71637,14.66386 12.5763,29.01195 1.64349,3.4375 3.93575,8.78125 5.09392,11.875 1.15815,3.09375 2.99113,7.29123 4.07328,9.32771 2.90867,5.47378 8.18223,16.38452 12.71044,26.29729 2.19839,4.8125 5.09094,10.71875 6.42791,13.125 15.85782,28.54059 22.72354,47.64757 19.10542,53.16953 -1.13824,1.73717 -1.8527,3.28156 -1.5877,3.43198 6.27811,3.56354 9.67198,4.45441 19.85682,5.21231 6.53125,0.48602 14.125,1.28861 16.875,1.78353 6.39226,1.15041 24.06516,0.64114 33.75,-0.97258 z m 694.6875,0.42777 c 5.9696,-1.05799 5.8882,-1.76754 -0.8354,-7.27697 -6.8093,-5.57973 -6.3722,-5.61167 -9.5925,0.70072 -2.8724,5.6302 -1.08,9.39003 3.7998,7.97122 1.0673,-0.31032 4.05,-0.93806 6.6281,-1.39497 z m -457.20552,-3.86233 c 7.80993,-4.36506 4.97058,-6.83352 -4.1413,-3.60036 -3.21238,1.13985 -7.52818,2.4857 -9.59068,2.99078 -3.54164,0.8673 -3.6111,0.99958 -1.25,2.38083 3.98715,2.33252 8.6194,1.78487 14.98198,-1.77125 z m -14.48454,-9.74925 c 4.9164,-2.54237 19.36756,-5.02381 22.17011,-3.80687 1.28285,0.55705 2.81354,0.90377 3.40153,0.7705 0.58798,-0.13326 1.86782,0.4206 2.84408,1.23082 2.06824,1.71649 18.73699,-1.67983 22.59159,-4.60312 3.29799,-2.50116 -6.51349,-2.41425 -11.33514,0.10037 -3.94305,2.05645 -12.04461,2.53687 -12.04461,0.71424 0,-1.69092 6.91235,-3.53586 16.875,-4.50401 12.99755,-1.26308 15.94786,-3.36686 9.6796,-6.90228 -3.70669,-2.09063 -12.47449,-0.54678 -22.8862,4.02987 -2.45114,1.07743 -9.76364,2.94965 -16.25,4.16048 -26.34094,4.91715 -27.89727,5.41662 -26.68909,8.56509 0.98915,2.57769 6.89189,2.70184 11.64313,0.24488 z m 82.94006,-0.2457 c 2.24165,-0.4199 3.4375,-1.42834 3.4375,-2.89879 0,-2.8048 -4.08802,-3.98033 -8.52273,-2.45078 -1.84375,0.63591 -5.03977,1.35441 -7.10227,1.59666 -2.0625,0.24224 -5.71875,0.91461 -8.125,1.49415 l -4.375,1.05372 5,1.54798 c 4.59026,1.42113 10.85225,1.31205 19.6875,-0.34294 z M 424.375,567.5 c 0.4249,-0.6875 2.1456,-1.25 3.82377,-1.25 1.67818,0 3.05123,-0.48153 3.05123,-1.07005 0,-2.1123 -21.19449,-0.77118 -23.44949,1.48381 -1.9483,1.94831 -1.49492,2.08624 6.85786,2.08624 4.91925,0 9.29173,-0.5625 9.71663,-1.25 z m 71.17067,-3.79567 c 1.39375,-1.39376 -7.96242,-1.65848 -14.24025,-0.40292 -2.90965,0.58194 -3.55153,1.11154 -2.34375,1.9338 1.9991,1.36096 14.88132,0.1718 16.584,-1.53089 z m 152.33989,-5.08507 c 9.59833,-1.47427 15.15224,-3.51247 9.75857,-3.58125 -4.587,-0.0585 -19.37269,2.73609 -20.70663,3.91368 -1.57164,1.38742 0.0767,1.33737 10.94806,-0.33243 z M 731.875,555 c 0.4249,-0.6875 0.13894,-1.25 -0.63546,-1.25 -0.83917,0 -1.08744,-1.01001 -0.61454,-2.5 0.94826,-2.98772 -18.72743,-3.89757 -21.625,-1 -3.57929,3.57929 -1.70285,4.86495 6.3125,4.32509 4.29687,-0.28942 8.9375,-0.0705 10.3125,0.4865 3.49087,1.41408 5.3493,1.39577 6.25,-0.0616 z m 219.5818,-23.15625 c 0.0286,-1.80775 -7.67365,-3.74381 -31.95636,-8.03265 -21.89693,-3.86745 -69.46458,-4.68038 -83.87544,-1.43343 -2.75,0.61962 -7.69786,1.6766 -10.99524,2.34885 -6.81906,1.39024 -7.7603,1.99198 -6.44495,4.12025 0.70268,1.13697 4.54031,1.26839 15.43766,0.52869 16.95623,-1.15097 18.08908,-1.13746 45.12753,0.53848 11.34375,0.70312 29.0625,1.32527 39.375,1.38256 10.3125,0.0572 21.5625,0.55361 25,1.10296 7.27545,1.16269 8.30567,1.09398 8.3318,-0.55571 z m 152.2932,-1.3892 c 0,-1.81526 -2.5981,-2.14661 -7.1875,-0.91669 -4.4623,1.19584 -3.2727,2.62123 2.1875,2.62123 3.3889,0 5,-0.54924 5,-1.70454 z M 999.56865,518.07109 c 1.08425,-2.82564 0.80945,-2.9083 -12.75493,-3.83623 l -12.43872,-0.85092 2.47128,2.78252 c 1.76444,1.98668 3.39013,2.59875 5.68387,2.14001 1.76693,-0.35338 4.02985,-0.12552 5.02872,0.50637 3.04259,1.92473 11.17941,1.4222 12.00978,-0.74175 z M 747.5,516.37229 c 0,-2.13673 -7.69273,-4.01845 -9.68124,-2.36814 -1.55655,1.29182 -1.48661,1.63082 0.49755,2.41162 3.32415,1.30812 9.18369,1.28037 9.18369,-0.0435 z m 223.75,-1.82519 c 0,-2.15731 -11.142,-3.49976 -18.125,-2.18379 -4.87,0.91778 -4.75625,0.97619 4.375,2.24689 13.2233,1.84015 13.75,1.83774 13.75,-0.0631 z m 51.5398,-4.22191 c 6.7506,-0.92248 4.5372,-2.74 -2.491,-2.04541 -10.6213,1.04971 -16.0119,2.80053 -8.4238,2.736 3.4375,-0.0292 8.3491,-0.34 10.9148,-0.69059 z M 254.32392,492.1875 c -1.39611,-4.6493 -9.24113,-17.68696 -10.11611,-16.81198 C 242.80046,476.78288 251.86997,495 253.978,495 c 0.65476,0 0.81042,-1.26563 0.34592,-2.8125 z m 46.44468,-9.375 c -0.35744,-1.20313 -1.01883,-3.73438 -1.46975,-5.625 -0.83939,-3.51934 -3.04885,-4.78684 -3.04885,-1.74903 0,3.01072 2.7107,9.56153 3.95651,9.56153 0.66658,0 0.91952,-0.98438 0.56209,-2.1875 z m 5.04979,-6.25 c -0.33005,-1.20313 -0.96819,-4.4375 -1.41808,-7.1875 -0.84047,-5.13745 -3.00436,-10.01751 -18.96126,-42.76216 -8.71827,-17.89049 -10.97174,-21.49681 -12.48624,-19.98231 -0.34697,0.34697 2.50295,8.46388 6.33316,18.03758 3.83022,9.57372 6.96403,18.34615 6.96403,19.49432 0,1.14816 0.5625,2.08757 1.25,2.08757 0.6875,0 1.25,0.65884 1.25,1.46408 0,0.80523 0.73066,2.35211 1.6237,3.4375 0.89305,1.08538 2.97243,5.06717 4.62086,8.84842 1.64843,3.78125 3.64369,7.4375 4.43393,8.125 0.79022,0.6875 2.19884,3.35938 3.13025,5.9375 1.67222,4.62865 4.42216,6.73773 3.25965,2.5 z m -41.05989,-75 c -2.50087,-6.76679 -6.51528,-12.72721 -7.74066,-11.49305 -0.7023,0.70731 4.15428,15.03864 5.80095,17.11805 3.49452,4.41291 4.53471,1.39645 1.93971,-5.625 z m 3.50024,-16.03974 C 267.84143,384.43529 267.5,383.0722 267.5,382.49367 c 0,-0.57852 -1.51721,-2.85496 -3.37159,-5.05876 -3.06902,-3.64732 -6.95279,-12.38815 -8.73556,-19.6603 -0.38432,-1.56771 -1.75494,-3.41562 -3.04581,-4.10647 -3.35571,-1.79593 -3.23059,3.89478 0.15296,6.95686 1.375,1.24436 2.50314,2.87841 2.50697,3.63124 0.0145,2.85006 2.6487,10.72448 4.10264,12.26408 0.83347,0.88258 2.49066,3.71405 3.68267,6.29218 2.08605,4.51183 7.11447,7.0049 5.46646,2.71026 z m -29.80583,-40.2492 c -0.86785,-1.0421 -2.78625,-4.74525 -4.2631,-8.22921 -1.47685,-3.48396 -3.30497,-6.54108 -4.0625,-6.79358 -1.71899,-0.573 -1.83487,4.31889 -0.12731,5.37423 0.6875,0.4249 1.25,1.57666 1.25,2.55949 0,0.98281 0.98437,2.9366 2.1875,4.34175 1.20312,1.40515 2.25781,3.09907 2.34375,3.76428 0.0859,0.66522 0.22656,1.84086 0.3125,2.61253 0.10887,0.97794 0.72904,0.92769 2.04666,-0.16584 1.5385,-1.27685 1.59668,-1.92162 0.3125,-3.46365 z m 5.68455,-8.08606 c -0.95551,-4.85196 -6.49974,-13.67016 -8.0085,-12.73769 -0.58629,0.36234 0.60736,2.96876 2.65254,5.79204 2.04517,2.82329 3.7185,6.0801 3.7185,7.23736 0,1.88763 1.02482,3.77079 2.05209,3.77079 0.21197,0 0.0254,-1.82813 -0.41463,-4.0625 z m -20.84524,-19.78889 c -0.42365,-2.11826 -1.90021,-5.28787 -3.28125,-7.04357 -1.38103,-1.7557 -2.51097,-4.4824 -2.51097,-6.05933 0,-2.88385 -2.92958,-6.79571 -5.08929,-6.79571 -0.63839,0 -1.16071,-1.31908 -1.16071,-2.93126 0,-1.6122 -1.125,-3.94938 -2.5,-5.19374 -1.375,-1.24436 -2.5,-3.01904 -2.5,-3.94374 0,-0.92469 -0.50152,-1.68126 -1.11449,-1.68126 -0.61297,0 -1.47886,-1.45176 -1.9242,-3.22615 -0.982,-3.91258 -6.86047,-13.02385 -8.40282,-13.02385 -0.61012,0 0.0271,2.22759 1.41611,4.9502 1.38896,2.72261 2.5254,5.55966 2.5254,6.30456 0,0.74489 1.40625,2.87093 3.125,4.72453 1.71875,1.85358 3.125,4.16657 3.125,5.13995 0,0.97338 1.4374,3.65431 3.19423,5.95762 1.75682,2.30333 2.91861,4.63382 2.58173,5.17887 -0.33686,0.54506 0.74768,3.21362 2.41008,5.93014 1.66241,2.71652 4.1832,7.32975 5.60175,10.25163 3.04686,6.27576 5.63528,7.11538 4.50444,1.46111 z M 192.5,240.42764 c 0,-2.62404 -3.48689,-9.78635 -8.4097,-17.27414 -3.11643,-4.74019 -4.0903,-5.5762 -4.0903,-3.51126 0,1.49062 0.5625,3.05786 1.25,3.48276 0.6875,0.4249 1.25,1.7321 1.25,2.90489 0,3.35622 7.50275,17.86595 8.81791,17.05313 0.65015,-0.40181 1.18209,-1.59673 1.18209,-2.65538 z m -19.00496,-3.20113 c -4.94469,-7.64797 -3.73043,-13.09052 1.59082,-7.13034 l 3.43387,3.84618 -0.53443,-5.72083 c -0.54387,-5.82183 -5.7275,-16.78216 -8.79495,-18.59613 -0.92969,-0.54979 -1.69035,-2.30904 -1.69035,-3.90945 0,-1.6004 -0.84375,-3.61008 -1.875,-4.46594 -1.03125,-0.85586 -1.875,-2.63094 -1.875,-3.94461 0,-1.31368 -1.41379,-5.17848 -3.14175,-8.58845 -1.72798,-3.40998 -3.1743,-6.62565 -3.21407,-7.14595 -0.0397,-0.52029 -0.76765,-1.78974 -1.61749,-2.82099 -0.84984,-1.03125 -3.42516,-5.67187 -5.72295,-10.3125 -3.60444,-7.27959 -7.99875,-12.1576 -5.80714,-6.44637 0.42024,1.09512 1.12494,3.48575 1.56601,5.3125 0.44108,1.82676 1.84493,4.81446 3.11968,6.63933 1.27474,1.82488 2.31771,3.97135 2.31771,4.76993 0,1.43164 10.58153,23.23324 12.45525,25.66211 0.53036,0.6875 2.0929,4.34375 3.47231,8.125 1.37942,3.78125 2.9202,7.85938 3.42396,9.0625 1.48747,3.55241 -1.43731,2.53013 -4.31216,-1.50721 -1.44697,-2.0321 -3.23935,-5.54773 -3.98305,-7.8125 -1.96701,-5.9901 -7.2904,-17.37688 -9.81426,-20.99279 -1.19966,-1.71875 -2.56855,-4.91426 -3.04198,-7.10112 -0.47342,-2.18688 -1.65347,-4.63403 -2.62234,-5.43811 -0.96887,-0.80408 -2.12148,-3.38042 -2.56136,-5.72518 -0.43987,-2.34477 -1.26162,-4.54864 -1.8261,-4.8975 -0.56447,-0.34887 -1.89388,-3.61864 -2.95425,-7.26618 -1.06036,-3.64754 -3.06601,-7.66181 -4.45698,-8.92062 -1.39096,-1.25882 -2.55605,-3.18595 -2.58908,-4.28253 -0.0624,-2.07303 -1.92452,-5.87233 -7.75246,-15.81761 -1.89062,-3.22631 -3.4375,-6.92595 -3.4375,-8.22141 0,-1.29546 -1.96875,-5.15634 -4.375,-8.57974 -2.40625,-3.4234 -4.375,-6.79263 -4.375,-7.48718 0,-0.69455 -0.98437,-2.29443 -2.1875,-3.55529 -1.20312,-1.26086 -3.05005,-3.93274 -4.10427,-5.937503 -2.13171,-4.053761 -6.723734,-5.487072 -7.884902,-2.461117 -0.471256,1.228072 -0.04966,1.94109 1.147721,1.94109 2.905061,0 8.028951,5.78274 8.028951,9.06135 0,1.60874 2.52989,7.96244 5.62197,14.11932 3.09208,6.15688 5.62333,11.66254 5.625,12.23482 0.005,1.85224 7.7794,18.82066 10.85507,23.69351 1.64341,2.6037 2.72616,5.15771 2.4061,5.67559 -0.32007,0.51787 0.16931,2.60632 1.08751,4.641 0.9182,2.03467 3.12855,6.89895 4.9119,10.8095 1.78335,3.91056 3.24245,7.68835 3.24245,8.3951 0,2.2209 4.19899,10.59449 7.15991,14.27822 1.56205,1.94337 2.84009,4.33399 2.84009,5.3125 0,0.9785 0.63862,1.77909 1.41916,1.77909 3.01104,0 8.61631,7.99659 9.20008,13.125 0.41456,3.64196 8.4064,17.6318 11.20786,19.61954 2.11999,1.5042 2.3355,-0.0521 0.41794,-3.01803 z M 128.75,225.56461 c 0,-0.37695 -1.125,-2.9082 -2.5,-5.625 -1.375,-2.71678 -3.62085,-7.15385 -4.99078,-9.86014 -2.82695,-5.58463 -5.65294,-8.18257 -3.90341,-3.58841 4.48028,11.76498 11.39419,23.33866 11.39419,19.07355 z M 113.79293,195.3125 c -1.49293,-4.97013 -2.56188,-7.80333 -5.06989,-13.4375 -2.59219,-5.8233 -5.28255,-12.08575 -7.65226,-17.8125 C 100.1462,161.82812 98.964534,160 98.444861,160 97.925187,160 97.5,158.38836 97.5,156.41857 c 0,-1.96978 -1.125,-5.01163 -2.5,-6.75966 -1.375,-1.74802 -2.5,-3.74705 -2.5,-4.44227 0,-1.1594 -2.624943,-6.8959 -5.246976,-11.46664 -0.591583,-1.03125 -1.406129,-2.85938 -1.810104,-4.0625 C 85.038946,128.48437 84.211526,127.5 83.604211,127.5 82.996895,127.5 82.5,126.59683 82.5,125.49295 c 0,-1.10388 -1.381225,-3.64855 -3.069387,-5.65482 l -3.069389,-3.64776 0.500895,3.46731 c 0.860591,5.95725 2.860632,11.44203 5.549181,15.21776 1.423785,1.99951 2.5887,4.49983 2.5887,5.55625 0,1.05642 0.573203,2.27502 1.273784,2.70801 1.554662,0.96084 16.303626,31.44844 21.442286,44.32337 4.71216,11.80635 8.88418,17.1953 6.07686,7.84943 z M 87.23236,112.3269 C 87.57795,110.54661 83.647899,105 82.040881,105 c -1.252253,0 -0.923078,3.34222 0.674512,6.84855 1.535072,3.36912 3.907052,3.62031 4.516967,0.47835 z M 120,106.81774 c 0,-0.37524 -1.40625,-3.32389 -3.125,-6.55255 -1.71875,-3.228665 -3.125,-6.859149 -3.125,-8.067744 0,-2.772806 -1.97618,-2.86547 -3.0214,-0.141673 -0.43388,1.130675 0.047,2.979386 1.06859,4.108247 1.02161,1.128863 2.73022,4.14127 3.79691,6.69423 1.62022,3.87771 4.4059,6.38115 4.4059,3.95949 z M 109.85044,75.431545 c -3.60828,-7.208578 -5.40199,-7.983582 -7.11362,-3.073581 -1.48921,4.271962 -0.66297,8.892036 1.59024,8.892036 0.84451,0 2.59329,1.168879 3.88618,2.597508 l 2.35072,2.597507 1.13096,-2.534588 c 0.82587,-1.850839 0.32829,-4.138158 -1.84448,-8.478882 z"
     id="path4146"
     inkscape:connector-curvature="0" />
</svg>
