<?xml version="1.0" encoding="iso-8859-1"?>
<!-- Generator: Adobe Illustrator 19.0.0, SVG Export Plug-In . SVG Version: 6.00 Build 0)  -->
<svg version="1.1" id="Layer_1" xmlns="http://www.w3.org/2000/svg" xmlns:xlink="http://www.w3.org/1999/xlink" x="0px" y="0px"
	 viewBox="0 0 512 512" style="enable-background:new 0 0 512 512;" xml:space="preserve">
<path style="fill:#E79C25;" d="M512,393.186H0V243.972c0-30.795,14.709-52.683,42.537-63.295c21.587-8.232,48.15-8.991,73.839-9.724
	c14.777-0.421,28.734-0.819,40.675-2.594c18.924-2.813,36.591-15.958,57.047-31.179c32.748-24.366,73.503-54.689,138.395-54.689
	c62.876,0,100.772,29.166,121.49,53.634C497.788,164.237,512,202.261,512,237.838V393.186z"/>
<path style="fill:#F7F7F8;" d="M253.103,343.403H121.901V244.28h131.202V343.403z"/>
<path style="fill:#D7D7D7;" d="M390.099,343.403H258.897V244.28h131.202V343.403z"/>
<rect x="34.738" y="376.488" style="fill:#82370D;" width="33.391" height="53.021"/>
<rect x="443.871" y="376.488" style="fill:#5B370D;" width="33.391" height="53.021"/>
<path style="fill:#E0711B;" d="M443.871,326.707H256H34.737v66.479h409.134C443.871,393.186,443.871,343.403,443.871,326.707z"/>
<g>
	<path style="fill:#F0C838;" d="M104.698,326.707c0-78.155-60.212-98.724-86.151-98.724H1.473C0.498,233.007,0,238.338,0,243.972
		v149.214h104.698V326.707z"/>
	<path style="fill:#F0C838;" d="M407.302,326.707c0-78.155,60.212-98.724,86.151-98.724h17.075
		c0.975,5.023,1.473,10.356,1.473,15.989v149.213H407.302V326.707z"/>
</g>
<g>
</g>
<g>
</g>
<g>
</g>
<g>
</g>
<g>
</g>
<g>
</g>
<g>
</g>
<g>
</g>
<g>
</g>
<g>
</g>
<g>
</g>
<g>
</g>
<g>
</g>
<g>
</g>
<g>
</g>
</svg>
